<svg width="10" height="10" viewBox="0 0 10 10" fill="none" xmlns="http://www.w3.org/2000/svg">
<path d="M7.45749 1.7201V0.789459M3.2696 1.7201V0.789459M1.29199 3.11606H9.43511M1.17566 4.06718C1.17566 3.08303 1.17566 2.59072 1.37854 2.21474C1.56189 1.8793 1.84658 1.61041 2.19192 1.44649C2.59024 1.25478 3.11139 1.25478 4.15371 1.25478H6.57338C7.6157 1.25478 8.13686 1.25478 8.53518 1.44649C8.88556 1.61494 9.16987 1.88389 9.34856 2.21427C9.55144 2.59118 9.55144 3.08349 9.55144 4.06765V6.3533C9.55144 7.33746 9.55144 7.82977 9.34856 8.20575C9.16521 8.54118 8.88052 8.81007 8.53518 8.97399C8.13686 9.16524 7.6157 9.16524 6.57338 9.16524H4.15371C3.11139 9.16524 2.59024 9.16524 2.19192 8.97352C1.84665 8.80973 1.56197 8.54101 1.37854 8.20575C1.17566 7.82884 1.17566 7.33653 1.17566 6.35237V4.06718Z" stroke="#1F0954" stroke-width="0.697982" stroke-linecap="round" stroke-linejoin="round"/>
</svg>
