<svg width="12" height="9" viewBox="0 0 12 9" fill="none" xmlns="http://www.w3.org/2000/svg">
<path d="M7.21293 7.69634C7.14833 7.75653 7.09652 7.82911 7.06059 7.90976C7.02465 7.99041 7.00533 8.07747 7.00377 8.16575C7.00221 8.25403 7.01845 8.34171 7.05152 8.42358C7.08459 8.50544 7.13381 8.57981 7.19624 8.64224C7.25867 8.70467 7.33303 8.75389 7.4149 8.78696C7.49677 8.82002 7.58445 8.83626 7.67273 8.83471C7.76101 8.83315 7.84807 8.81383 7.92872 8.77789C8.00936 8.74196 8.08195 8.69015 8.14214 8.62555L11.6486 5.11909C11.7717 4.99581 11.8409 4.82871 11.8409 4.65448C11.8409 4.48025 11.7717 4.31315 11.6486 4.18987L8.14214 0.683409C8.08195 0.618814 8.00936 0.567004 7.92872 0.53107C7.84807 0.495136 7.76101 0.475814 7.67273 0.474257C7.58445 0.472699 7.49677 0.488937 7.4149 0.522004C7.33303 0.555071 7.25867 0.604289 7.19624 0.66672C7.13381 0.729152 7.08459 0.803519 7.05152 0.885384C7.01845 0.96725 7.00221 1.05494 7.00377 1.14321C7.00533 1.23149 7.02465 1.31855 7.06059 1.3992C7.09652 1.47985 7.14833 1.55243 7.21293 1.61262L9.59732 3.99702L1.10291 3.99702C0.92854 3.99702 0.761312 4.06629 0.638014 4.18959C0.514716 4.31288 0.445448 4.48011 0.445448 4.65448C0.445448 4.82885 0.514716 4.99608 0.638014 5.11938C0.761312 5.24267 0.92854 5.31194 1.10291 5.31194H9.59732L7.21293 7.69634Z" fill="white"/>
</svg>
