<svg width="27" height="24" viewBox="0 0 27 24" fill="none" xmlns="http://www.w3.org/2000/svg">
<path d="M21.7728 10.2881C21.9183 9.06686 22.1727 8.78294 22.1727 8.28868C22.1198 7.85118 21.961 7.43317 21.7102 7.07083C21.4593 6.7085 21.124 6.41277 20.7331 6.20926C19.5198 5.53025 17.4036 6.06611 13.2208 7.169C12.7788 7.29412 12.3148 7.32142 11.8611 7.24898C11.2611 7.14486 10.7049 6.86676 10.2616 6.44921C12.5979 5.8493 14.8936 5.10132 17.1349 4.20982C19.3823 3.31727 22.0615 1.15307 23.8082 0.210938C24.9279 0.584433 25.3662 2.16159 26.485 2.53429L25.0455 4.45374C23.9058 6.72384 23.0978 9.14572 22.6461 11.6453C22.5162 11.6559 22.3854 11.6401 22.2617 11.5989C22.138 11.5576 22.024 11.4918 21.9263 11.4054C21.7112 11.1783 21.7064 10.8408 21.7728 10.2881Z" fill="#8B72FC"/>
<path d="M14.828 9.27752C15.0418 9.42125 15.2906 9.50417 15.5478 9.51744C16.0669 9.53504 16.4795 9.21913 17.2273 8.47774C17.692 8.01707 18.2734 7.40445 18.9069 6.63827C18.3356 6.5667 17.7557 6.64954 17.2273 6.87819L14.828 9.27752Z" fill="#8B72FC"/>
<path d="M11.7108 9.03625C11.9403 9.03815 12.1698 9.02612 12.3978 9.00025C12.7329 8.95832 13.0642 8.8904 13.3887 8.7971C14.2366 8.48553 15.0221 8.02511 15.7081 7.4375L13.1488 7.91735C12.7922 7.99005 12.4612 8.15558 12.1891 8.39722C11.9892 8.57676 11.8267 8.7939 11.7108 9.03625Z" fill="#8B72FC"/>
<path d="M3.45957 13.0648C3.53155 14.2925 3.33321 14.6164 3.41718 15.1018C3.54613 15.5229 3.77569 15.9062 4.08602 16.2186C4.39635 16.531 4.77811 16.7632 5.19829 16.8949C6.51152 17.35 8.50056 16.4502 12.4243 14.6316C12.837 14.4301 13.2887 14.3209 13.7479 14.3117C14.3564 14.3089 14.9524 14.485 15.4618 14.8179C13.2674 15.8181 11.1389 16.9569 9.08919 18.2274C7.03457 19.5014 4.7768 22.1031 3.22364 23.3379C2.05676 23.1676 1.34656 21.692 0.179688 21.5216L1.25858 19.3806C1.98113 16.9456 2.35067 14.4195 2.35589 11.8795C2.48187 11.8464 2.61325 11.839 2.74215 11.8578C2.87106 11.8766 2.99483 11.9213 3.10607 11.9891C3.36679 12.1778 3.42758 12.509 3.45957 13.0648Z" fill="#8B72FC"/>
<path d="M10.4752 12.8394C10.2397 12.7357 9.98037 12.6978 9.725 12.7298C9.21074 12.8034 8.85964 13.1873 8.25501 14.0471C7.87832 14.5829 7.41444 15.2875 6.92578 16.1513C7.50023 16.1212 8.05613 15.9378 8.53573 15.6202L10.4752 12.8394Z" fill="#8B72FC"/>
<path d="M13.5862 12.5273C13.3597 12.567 13.1359 12.6204 12.916 12.6873C12.5935 12.7875 12.2793 12.9127 11.9762 13.0616C11.1971 13.517 10.5054 14.1077 9.93359 14.806L12.3665 13.8846C12.7044 13.7506 13.0009 13.5299 13.2263 13.2448C13.3925 13.0318 13.5148 12.7879 13.5862 12.5273Z" fill="#8B72FC"/>
</svg>
