<svg width="11" height="6" viewBox="0 0 11 6" fill="none" xmlns="http://www.w3.org/2000/svg">
<path d="M4.76203 5.22939L0.220541 1.47588C0.158337 1.42447 0.105747 1.36418 0.0627694 1.29501C0.0209228 1.22677 0 1.15339 0 1.07487C0 0.917835 0.0622038 0.782764 0.186613 0.669658C0.313283 0.556553 0.479538 0.5 0.685378 0.5H10.3163C10.521 0.5 10.6862 0.557954 10.8117 0.673864C10.9372 0.789773 11 0.924378 11 1.07768C11 1.11694 10.9265 1.24967 10.7795 1.47588L6.23797 5.22939C6.13279 5.31632 6.01969 5.38316 5.89867 5.42989C5.77766 5.47663 5.64477 5.5 5.5 5.5C5.35523 5.5 5.22234 5.47663 5.10133 5.42989C4.98031 5.38316 4.86721 5.31632 4.76203 5.22939Z" fill="#1F0954"/>
</svg>
