<svg width="14" height="14" viewBox="0 0 14 14" fill="none" xmlns="http://www.w3.org/2000/svg">
<path d="M1.83889 0.954397C2.52209 0.571997 3.39329 0.482397 4.22609 0.693597C4.63169 0.795997 4.97809 1.0592 5.18609 1.4216L5.96369 2.7776C6.2061 3.20012 6.28598 3.69659 6.18832 4.17383C6.09066 4.65107 5.82219 5.07626 5.43329 5.3696L4.95249 5.732C4.72609 5.9024 4.63249 6.144 4.67889 6.348C4.82529 6.9984 5.14849 7.6008 5.60049 8.0456C5.73569 8.1776 5.97249 8.2232 6.23089 8.1248L6.76369 7.9208C7.2123 7.74932 7.70764 7.74501 8.15917 7.90864C8.61071 8.07228 8.98828 8.39293 9.22289 8.812L9.98609 10.1736C10.1965 10.5496 10.2309 10.9984 10.0821 11.4024C9.78529 12.2048 9.21329 12.852 8.51009 13.176C7.79569 13.5048 6.95969 13.4912 6.20289 12.9864C5.00449 12.188 3.56049 10.844 2.25249 8.6024C0.927687 6.3304 0.594087 4.3968 0.631687 2.9552C0.655687 2.0328 1.14369 1.3432 1.83889 0.954397ZM2.22929 1.6528C1.76049 1.9152 1.44689 2.3576 1.43089 2.9768C1.39729 4.2672 1.69329 6.0544 2.94289 8.1984C4.19089 10.336 5.55009 11.5904 6.64689 12.3216C7.15889 12.6624 7.69809 12.6688 8.17489 12.4496C8.66369 12.224 9.09969 11.7528 9.33169 11.1248C9.36519 11.0338 9.3786 10.9366 9.37101 10.84C9.36341 10.7433 9.33499 10.6494 9.28769 10.5648L8.52529 9.2024C8.38446 8.9509 8.15781 8.7585 7.88679 8.66038C7.61577 8.56225 7.31848 8.56496 7.04929 8.668L6.51649 8.872C6.05249 9.0496 5.45729 9.0256 5.03969 8.616C4.46849 8.0552 4.07569 7.3104 3.89809 6.5248C3.76769 5.9448 4.05489 5.4072 4.47089 5.0928L4.95089 4.7304C5.18398 4.55459 5.34499 4.29984 5.40375 4.01385C5.4625 3.72786 5.41498 3.43026 5.27009 3.1768L4.49329 1.8208C4.44369 1.73425 4.3772 1.65856 4.29776 1.59822C4.21833 1.53789 4.12757 1.49415 4.03089 1.4696C3.36929 1.3016 2.71169 1.384 2.23089 1.6536M10.9981 0.999997C10.9981 0.89391 10.9559 0.792169 10.8809 0.717154C10.8059 0.64214 10.7042 0.599997 10.5981 0.599997C10.492 0.599997 10.3903 0.64214 10.3152 0.717154C10.2402 0.792169 10.1981 0.89391 10.1981 0.999997V3.0008H8.19809C8.092 3.0008 7.99026 3.04294 7.91524 3.11795C7.84023 3.19297 7.79809 3.29471 7.79809 3.4008C7.79809 3.50688 7.84023 3.60862 7.91524 3.68364C7.99026 3.75865 8.092 3.8008 8.19809 3.8008H10.1981V5.8008C10.1981 5.90688 10.2402 6.00862 10.3152 6.08364C10.3903 6.15865 10.492 6.2008 10.5981 6.2008C10.7042 6.2008 10.8059 6.15865 10.8809 6.08364C10.9559 6.00862 10.9981 5.90688 10.9981 5.8008V3.8008H12.9981C13.1042 3.8008 13.2059 3.75865 13.2809 3.68364C13.3559 3.60862 13.3981 3.50688 13.3981 3.4008C13.3981 3.29471 13.3559 3.19297 13.2809 3.11795C13.2059 3.04294 13.1042 3.0008 12.9981 3.0008H10.9981V0.999997Z" fill="#1F0954"/>
</svg>
