<svg width="12" height="12" viewBox="0 0 12 12" fill="none" xmlns="http://www.w3.org/2000/svg">
<path d="M2.5 10.5H9.5" stroke="#A3A3A3" stroke-width="0.5" stroke-linecap="round" stroke-linejoin="round"/>
<path d="M2.5 10.5H9.5" stroke="black" stroke-opacity="0.2" stroke-width="0.5" stroke-linecap="round" stroke-linejoin="round"/>
<path d="M2.5 10.5H9.5" stroke="black" stroke-opacity="0.2" stroke-width="0.5" stroke-linecap="round" stroke-linejoin="round"/>
<path d="M2.5 10.5H9.5" stroke="black" stroke-opacity="0.2" stroke-width="0.5" stroke-linecap="round" stroke-linejoin="round"/>
<path d="M2.5 10.5H9.5" stroke="black" stroke-opacity="0.2" stroke-width="0.5" stroke-linecap="round" stroke-linejoin="round"/>
<path d="M2.5 10.5H9.5" stroke="black" stroke-opacity="0.2" stroke-width="0.5" stroke-linecap="round" stroke-linejoin="round"/>
<path d="M2.5 1.5V5C2.5 6.935 4.065 8.5 6 8.5C7.935 8.5 9.5 6.935 9.5 5V1.5" stroke="#A3A3A3" stroke-width="0.5" stroke-linecap="round" stroke-linejoin="round"/>
<path d="M2.5 1.5V5C2.5 6.935 4.065 8.5 6 8.5C7.935 8.5 9.5 6.935 9.5 5V1.5" stroke="black" stroke-opacity="0.2" stroke-width="0.5" stroke-linecap="round" stroke-linejoin="round"/>
<path d="M2.5 1.5V5C2.5 6.935 4.065 8.5 6 8.5C7.935 8.5 9.5 6.935 9.5 5V1.5" stroke="black" stroke-opacity="0.2" stroke-width="0.5" stroke-linecap="round" stroke-linejoin="round"/>
<path d="M2.5 1.5V5C2.5 6.935 4.065 8.5 6 8.5C7.935 8.5 9.5 6.935 9.5 5V1.5" stroke="black" stroke-opacity="0.2" stroke-width="0.5" stroke-linecap="round" stroke-linejoin="round"/>
<path d="M2.5 1.5V5C2.5 6.935 4.065 8.5 6 8.5C7.935 8.5 9.5 6.935 9.5 5V1.5" stroke="black" stroke-opacity="0.2" stroke-width="0.5" stroke-linecap="round" stroke-linejoin="round"/>
<path d="M2.5 1.5V5C2.5 6.935 4.065 8.5 6 8.5C7.935 8.5 9.5 6.935 9.5 5V1.5" stroke="black" stroke-opacity="0.2" stroke-width="0.5" stroke-linecap="round" stroke-linejoin="round"/>
</svg>
