<svg width="12" height="12" viewBox="0 0 12 12" fill="none" xmlns="http://www.w3.org/2000/svg">
<path d="M2.44 2.25C2.44 1.7 2.89 1.25 3.44 1.25H6C7.31 1.25 8.375 2.315 8.375 3.625C8.375 4.935 7.31 6 6 6H2.44V2.25Z" stroke="#A3A3A3" stroke-width="0.5" stroke-linecap="round" stroke-linejoin="round"/>
<path d="M2.44 2.25C2.44 1.7 2.89 1.25 3.44 1.25H6C7.31 1.25 8.375 2.315 8.375 3.625C8.375 4.935 7.31 6 6 6H2.44V2.25Z" stroke="black" stroke-opacity="0.2" stroke-width="0.5" stroke-linecap="round" stroke-linejoin="round"/>
<path d="M2.44 2.25C2.44 1.7 2.89 1.25 3.44 1.25H6C7.31 1.25 8.375 2.315 8.375 3.625C8.375 4.935 7.31 6 6 6H2.44V2.25Z" stroke="black" stroke-opacity="0.2" stroke-width="0.5" stroke-linecap="round" stroke-linejoin="round"/>
<path d="M2.44 2.25C2.44 1.7 2.89 1.25 3.44 1.25H6C7.31 1.25 8.375 2.315 8.375 3.625C8.375 4.935 7.31 6 6 6H2.44V2.25Z" stroke="black" stroke-opacity="0.2" stroke-width="0.5" stroke-linecap="round" stroke-linejoin="round"/>
<path d="M2.44 2.25C2.44 1.7 2.89 1.25 3.44 1.25H6C7.31 1.25 8.375 2.315 8.375 3.625C8.375 4.935 7.31 6 6 6H2.44V2.25Z" stroke="black" stroke-opacity="0.2" stroke-width="0.5" stroke-linecap="round" stroke-linejoin="round"/>
<path d="M2.44 2.25C2.44 1.7 2.89 1.25 3.44 1.25H6C7.31 1.25 8.375 2.315 8.375 3.625C8.375 4.935 7.31 6 6 6H2.44V2.25Z" stroke="black" stroke-opacity="0.2" stroke-width="0.5" stroke-linecap="round" stroke-linejoin="round"/>
<path d="M2.44 6H7.19C8.5 6 9.565 7.065 9.565 8.375C9.565 9.685 8.5 10.75 7.19 10.75H3.44C2.89 10.75 2.44 10.3 2.44 9.75V6V6Z" stroke="#A3A3A3" stroke-width="0.5" stroke-linecap="round" stroke-linejoin="round"/>
<path d="M2.44 6H7.19C8.5 6 9.565 7.065 9.565 8.375C9.565 9.685 8.5 10.75 7.19 10.75H3.44C2.89 10.75 2.44 10.3 2.44 9.75V6V6Z" stroke="black" stroke-opacity="0.2" stroke-width="0.5" stroke-linecap="round" stroke-linejoin="round"/>
<path d="M2.44 6H7.19C8.5 6 9.565 7.065 9.565 8.375C9.565 9.685 8.5 10.75 7.19 10.75H3.44C2.89 10.75 2.44 10.3 2.44 9.75V6V6Z" stroke="black" stroke-opacity="0.2" stroke-width="0.5" stroke-linecap="round" stroke-linejoin="round"/>
<path d="M2.44 6H7.19C8.5 6 9.565 7.065 9.565 8.375C9.565 9.685 8.5 10.75 7.19 10.75H3.44C2.89 10.75 2.44 10.3 2.44 9.75V6V6Z" stroke="black" stroke-opacity="0.2" stroke-width="0.5" stroke-linecap="round" stroke-linejoin="round"/>
<path d="M2.44 6H7.19C8.5 6 9.565 7.065 9.565 8.375C9.565 9.685 8.5 10.75 7.19 10.75H3.44C2.89 10.75 2.44 10.3 2.44 9.75V6V6Z" stroke="black" stroke-opacity="0.2" stroke-width="0.5" stroke-linecap="round" stroke-linejoin="round"/>
<path d="M2.44 6H7.19C8.5 6 9.565 7.065 9.565 8.375C9.565 9.685 8.5 10.75 7.19 10.75H3.44C2.89 10.75 2.44 10.3 2.44 9.75V6V6Z" stroke="black" stroke-opacity="0.2" stroke-width="0.5" stroke-linecap="round" stroke-linejoin="round"/>
</svg>
