<svg width="18" height="20" viewBox="0 0 18 20" fill="none" xmlns="http://www.w3.org/2000/svg">
<path d="M14.0333 11.2916C13.6833 11.6333 13.4833 12.125 13.5333 12.65C13.6083 13.55 14.4333 14.2083 15.3333 14.2083H16.9167V15.2C16.9167 16.925 15.5083 18.3333 13.7833 18.3333H4.21667C2.49167 18.3333 1.08333 16.925 1.08333 15.2V9.59165C1.08333 7.86665 2.49167 6.45831 4.21667 6.45831H13.7833C15.5083 6.45831 16.9167 7.86665 16.9167 9.59165V10.7917H15.2333C14.7667 10.7917 14.3417 10.975 14.0333 11.2916Z" stroke="#C2C2C2" stroke-width="1.5" stroke-linecap="round" stroke-linejoin="round"/>
<path d="M1.08333 10.3416V6.53336C1.08333 5.54169 1.69167 4.65832 2.61667 4.30832L9.23333 1.80832C10.2667 1.41666 11.375 2.18335 11.375 3.29168V6.45834" stroke="#C2C2C2" stroke-width="1.5" stroke-linecap="round" stroke-linejoin="round"/>
</svg>
