<svg width="34" height="33" viewBox="0 0 34 33" fill="none" xmlns="http://www.w3.org/2000/svg">
<circle cx="16" cy="16" r="16" fill="#FFECCC"/>
<path d="M12.8211 18.32C12.6763 18.32 12.5547 18.2711 12.4565 18.1733C12.3583 18.0747 12.3091 17.9527 12.3091 17.8073V17.1407H20.1425L20.5651 17.564V11.5H21.2318C21.3771 11.5 21.4989 11.5491 21.5971 11.6473C21.6954 11.7456 21.7447 11.8673 21.7451 12.0127V20.372L19.6931 18.3207L12.8211 18.32ZM10.2578 17.8593V10.0127C10.2578 9.86733 10.3067 9.74556 10.4045 9.64733C10.5036 9.54911 10.6258 9.5 10.7711 9.5H18.7198C18.8651 9.5 18.9869 9.54911 19.0851 9.64733C19.1834 9.74556 19.2325 9.86733 19.2325 10.0127V15.2947C19.2325 15.44 19.1834 15.562 19.0851 15.6607C18.9869 15.7584 18.8651 15.8073 18.7198 15.8073H12.3091L10.2578 17.8593ZM18.5651 15.1413V10.1667H10.9245V16.064L11.8471 15.1413H18.5651Z" fill="#1F0954"/>
</svg>
