<svg width="34" height="33" viewBox="0 0 34 33" fill="none" xmlns="http://www.w3.org/2000/svg">
<circle cx="16" cy="16" r="16" fill="#FFECCC"/>
<g clip-path="url(#clip0_214_736)">
<path d="M10.8389 9.9544C11.5221 9.572 12.3933 9.4824 13.2261 9.6936C13.6317 9.796 13.9781 10.0592 14.1861 10.4216L14.9637 11.7776C15.2061 12.2001 15.286 12.6966 15.1883 13.1738C15.0907 13.6511 14.8222 14.0763 14.4333 14.3696L13.9525 14.732C13.7261 14.9024 13.6325 15.144 13.6789 15.348C13.8253 15.9984 14.1485 16.6008 14.6005 17.0456C14.7357 17.1776 14.9725 17.2232 15.2309 17.1248L15.7637 16.9208C16.2123 16.7493 16.7076 16.745 17.1592 16.9086C17.6107 17.0723 17.9883 17.3929 18.2229 17.812L18.9861 19.1736C19.1965 19.5496 19.2309 19.9984 19.0821 20.4024C18.7853 21.2048 18.2133 21.852 17.5101 22.176C16.7957 22.5048 15.9597 22.4912 15.2029 21.9864C14.0045 21.188 12.5605 19.844 11.2525 17.6024C9.92769 15.3304 9.59409 13.3968 9.63169 11.9552C9.65569 11.0328 10.1437 10.3432 10.8389 9.9544ZM11.2293 10.6528C10.7605 10.9152 10.4469 11.3576 10.4309 11.9768C10.3973 13.2672 10.6933 15.0544 11.9429 17.1984C13.1909 19.336 14.5501 20.5904 15.6469 21.3216C16.1589 21.6624 16.6981 21.6688 17.1749 21.4496C17.6637 21.224 18.0997 20.7528 18.3317 20.1248C18.3652 20.0338 18.3786 19.9366 18.371 19.84C18.3634 19.7433 18.335 19.6494 18.2877 19.5648L17.5253 18.2024C17.3845 17.9509 17.1578 17.7585 16.8868 17.6604C16.6158 17.5623 16.3185 17.565 16.0493 17.668L15.5165 17.872C15.0525 18.0496 14.4573 18.0256 14.0397 17.616C13.4685 17.0552 13.0757 16.3104 12.8981 15.5248C12.7677 14.9448 13.0549 14.4072 13.4709 14.0928L13.9509 13.7304C14.184 13.5546 14.345 13.2998 14.4037 13.0138C14.4625 12.7279 14.415 12.4303 14.2701 12.1768L13.4933 10.8208C13.4437 10.7342 13.3772 10.6586 13.2978 10.5982C13.2183 10.5379 13.1276 10.4941 13.0309 10.4696C12.3693 10.3016 11.7117 10.384 11.2309 10.6536M19.9981 10C19.9981 9.89391 19.9559 9.79217 19.8809 9.71715C19.8059 9.64214 19.7042 9.6 19.5981 9.6C19.492 9.6 19.3903 9.64214 19.3152 9.71715C19.2402 9.79217 19.1981 9.89391 19.1981 10V12.0008H17.1981C17.092 12.0008 16.9903 12.0429 16.9152 12.118C16.8402 12.193 16.7981 12.2947 16.7981 12.4008C16.7981 12.5069 16.8402 12.6086 16.9152 12.6836C16.9903 12.7587 17.092 12.8008 17.1981 12.8008H19.1981V14.8008C19.1981 14.9069 19.2402 15.0086 19.3152 15.0836C19.3903 15.1587 19.492 15.2008 19.5981 15.2008C19.7042 15.2008 19.8059 15.1587 19.8809 15.0836C19.9559 15.0086 19.9981 14.9069 19.9981 14.8008V12.8008H21.9981C22.1042 12.8008 22.2059 12.7587 22.2809 12.6836C22.3559 12.6086 22.3981 12.5069 22.3981 12.4008C22.3981 12.2947 22.3559 12.193 22.2809 12.118C22.2059 12.0429 22.1042 12.0008 21.9981 12.0008H19.9981V10Z" fill="#1F0954"/>
</g>
<defs>
<clipPath id="clip0_214_736">
<rect width="16" height="16" fill="white" transform="translate(8 8)"/>
</clipPath>
</defs>
</svg>
