<svg width="45" height="44" viewBox="0 0 45 44" fill="none" xmlns="http://www.w3.org/2000/svg">
<rect width="45" height="44" fill="#1E1E1E"/>
<g clip-path="url(#clip0_1391_468)">
<rect width="1440" height="1168" transform="translate(-1194 -19)" fill="#F4F5FA"/>
<g filter="url(#filter0_d_1391_468)">
<rect width="1200" height="82" transform="translate(-954 -19)" fill="#FDFDFD"/>
<path fill-rule="evenodd" clip-rule="evenodd" d="M22.2222 44C34.4952 44 44.4444 34.1503 44.4444 22C44.4444 9.84974 34.4952 0 22.2222 0C9.94923 0 0 9.84974 0 22C0 34.1503 9.94923 44 22.2222 44Z" fill="#8B72FC"/>
<mask id="mask0_1391_468" style="mask-type:luminance" maskUnits="userSpaceOnUse" x="0" y="0" width="45" height="44">
<path fill-rule="evenodd" clip-rule="evenodd" d="M22.2222 44C34.4952 44 44.4444 34.1503 44.4444 22C44.4444 9.84974 34.4952 0 22.2222 0C9.94923 0 0 9.84974 0 22C0 34.1503 9.94923 44 22.2222 44Z" fill="white"/>
</mask>
<g mask="url(#mask0_1391_468)">
</g>
<path d="M38.0673 22.407L24.1264 8.4661C23.8278 8.16765 23.4229 8 23.0007 8C22.5785 8 22.1736 8.16765 21.875 8.4661L7.93252 22.4094C7.62689 22.7151 7.38671 23.0798 7.22658 23.4813C7.06645 23.8829 6.98973 24.3128 7.0011 24.7449C7.01248 25.177 7.1117 25.6023 7.29273 25.9948C7.47376 26.3874 7.73281 26.7389 8.05409 27.0281L13.7397 32.1467C14.3147 32.6642 15.0584 32.9547 15.8319 32.9642C16.6054 32.9736 17.3559 32.7012 17.9433 32.1979L20.9305 29.6386C21.5072 29.1444 22.2416 28.8728 23.0011 28.8728C23.7606 28.8728 24.495 29.1444 25.0717 29.6386L28.0581 32.1979C28.6456 32.7014 29.3963 32.9739 30.17 32.9645C30.9436 32.9551 31.6875 32.6644 32.2625 32.1467L37.9457 27.0281C38.2671 26.7387 38.5262 26.3869 38.7072 25.9942C38.8883 25.6015 38.9875 25.176 38.9989 24.7437C39.0103 24.3114 38.9335 23.8813 38.7734 23.4796C38.6132 23.0778 38.373 22.7129 38.0673 22.407Z" fill="white"/>
<path d="M32.7728 21.2881C32.9183 20.0669 33.1727 19.7829 33.1727 19.2887C33.1198 18.8512 32.961 18.4332 32.7102 18.0708C32.4593 17.7085 32.124 17.4128 31.7331 17.2093C30.5198 16.5302 28.4036 17.0661 24.2208 18.169C23.7788 18.2941 23.3148 18.3214 22.8611 18.249C22.2611 18.1449 21.7049 17.8668 21.2616 17.4492C23.5979 16.8493 25.8936 16.1013 28.1349 15.2098C30.3823 14.3173 33.0615 12.1531 34.8082 11.2109C35.9279 11.5844 36.3662 13.1616 37.485 13.5343L36.0455 15.4537C34.9058 17.7238 34.0978 20.1457 33.6461 22.6453C33.5162 22.6559 33.3854 22.6401 33.2617 22.5989C33.138 22.5576 33.024 22.4918 32.9263 22.4054C32.7112 22.1783 32.7064 21.8408 32.7728 21.2881Z" fill="#8B72FC"/>
<path d="M25.828 20.2775C26.0418 20.4212 26.2906 20.5042 26.5478 20.5174C27.0669 20.535 27.4795 20.2191 28.2273 19.4777C28.692 19.0171 29.2734 18.4045 29.9069 17.6383C29.3356 17.5667 28.7557 17.6495 28.2273 17.8782L25.828 20.2775Z" fill="#8B72FC"/>
<path d="M22.7108 20.0362C22.9403 20.0381 23.1698 20.0261 23.3978 20.0002C23.7329 19.9583 24.0642 19.8904 24.3887 19.7971C25.2366 19.4855 26.0221 19.0251 26.7081 18.4375L24.1488 18.9173C23.7922 18.99 23.4612 19.1556 23.1891 19.3972C22.9892 19.5768 22.8267 19.7939 22.7108 20.0362Z" fill="#8B72FC"/>
<path d="M14.4596 24.0648C14.5315 25.2925 14.3332 25.6164 14.4172 26.1018C14.5461 26.5229 14.7757 26.9062 15.086 27.2186C15.3963 27.531 15.7781 27.7632 16.1983 27.8949C17.5115 28.35 19.5006 27.4502 23.4243 25.6316C23.837 25.4301 24.2887 25.3209 24.7479 25.3117C25.3564 25.3089 25.9524 25.485 26.4618 25.8179C24.2674 26.8181 22.1389 27.9569 20.0892 29.2274C18.0346 30.5014 15.7768 33.1031 14.2236 34.3379C13.0568 34.1676 12.3466 32.692 11.1797 32.5216L12.2586 30.3806C12.9811 27.9456 13.3507 25.4195 13.3559 22.8795C13.4819 22.8464 13.6132 22.839 13.7422 22.8578C13.8711 22.8766 13.9948 22.9213 14.1061 22.9891C14.3668 23.1778 14.4276 23.509 14.4596 24.0648Z" fill="#8B72FC"/>
<path d="M21.4752 23.8394C21.2397 23.7357 20.9804 23.6978 20.725 23.7298C20.2107 23.8034 19.8596 24.1873 19.255 25.0471C18.8783 25.5829 18.4144 26.2875 17.9258 27.1513C18.5002 27.1212 19.0561 26.9378 19.5357 26.6202L21.4752 23.8394Z" fill="#8B72FC"/>
<path d="M24.5862 23.5273C24.3597 23.567 24.1359 23.6204 23.916 23.6873C23.5935 23.7875 23.2793 23.9127 22.9762 24.0616C22.1971 24.517 21.5054 25.1077 20.9336 25.806L23.3665 24.8846C23.7044 24.7506 24.0009 24.5299 24.2263 24.2448C24.3925 24.0318 24.5148 23.7879 24.5862 23.5273Z" fill="#8B72FC"/>
</g>
</g>
<defs>
<filter id="filter0_d_1391_468" x="-958" y="-21" width="1208" height="90" filterUnits="userSpaceOnUse" color-interpolation-filters="sRGB">
<feFlood flood-opacity="0" result="BackgroundImageFix"/>
<feColorMatrix in="SourceAlpha" type="matrix" values="0 0 0 0 0 0 0 0 0 0 0 0 0 0 0 0 0 0 127 0" result="hardAlpha"/>
<feOffset dy="2"/>
<feGaussianBlur stdDeviation="2"/>
<feColorMatrix type="matrix" values="0 0 0 0 0 0 0 0 0 0 0 0 0 0 0 0 0 0 0.0622169 0"/>
<feBlend mode="normal" in2="BackgroundImageFix" result="effect1_dropShadow_1391_468"/>
<feBlend mode="normal" in="SourceGraphic" in2="effect1_dropShadow_1391_468" result="shape"/>
</filter>
<clipPath id="clip0_1391_468">
<rect width="1440" height="1168" fill="white" transform="translate(-1194 -19)"/>
</clipPath>
</defs>
</svg>
