<svg width="45" height="45" viewBox="0 0 45 45" fill="none" xmlns="http://www.w3.org/2000/svg">
<path fill-rule="evenodd" clip-rule="evenodd" d="M22.2222 44.5C34.4952 44.5 44.4444 34.6503 44.4444 22.5C44.4444 10.3497 34.4952 0.5 22.2222 0.5C9.94923 0.5 0 10.3497 0 22.5C0 34.6503 9.94923 44.5 22.2222 44.5Z" fill="#8B72FC"/>
<mask id="mask0_4017_304" style="mask-type:luminance" maskUnits="userSpaceOnUse" x="0" y="0" width="45" height="45">
<path fill-rule="evenodd" clip-rule="evenodd" d="M22.2222 44.5C34.4952 44.5 44.4444 34.6503 44.4444 22.5C44.4444 10.3497 34.4952 0.5 22.2222 0.5C9.94923 0.5 0 10.3497 0 22.5C0 34.6503 9.94923 44.5 22.2222 44.5Z" fill="white"/>
</mask>
<g mask="url(#mask0_4017_304)">
</g>
<path d="M38.0673 22.907L24.1264 8.9661C23.8278 8.66765 23.4229 8.5 23.0007 8.5C22.5785 8.5 22.1736 8.66765 21.875 8.9661L7.93252 22.9094C7.62689 23.2151 7.38671 23.5798 7.22658 23.9813C7.06645 24.3829 6.98973 24.8128 7.0011 25.2449C7.01248 25.677 7.1117 26.1023 7.29273 26.4948C7.47376 26.8874 7.73281 27.2389 8.05409 27.5281L13.7397 32.6467C14.3147 33.1642 15.0584 33.4547 15.8319 33.4642C16.6054 33.4736 17.3559 33.2012 17.9433 32.6979L20.9305 30.1386C21.5072 29.6444 22.2416 29.3728 23.0011 29.3728C23.7606 29.3728 24.495 29.6444 25.0717 30.1386L28.0581 32.6979C28.6456 33.2014 29.3963 33.4739 30.17 33.4645C30.9436 33.4551 31.6875 33.1644 32.2625 32.6467L37.9457 27.5281C38.2671 27.2387 38.5262 26.8869 38.7072 26.4942C38.8883 26.1015 38.9875 25.676 38.9989 25.2437C39.0103 24.8114 38.9335 24.3813 38.7734 23.9796C38.6132 23.5778 38.373 23.2129 38.0673 22.907Z" fill="white"/>
<path d="M32.7728 21.7881C32.9183 20.5669 33.1727 20.2829 33.1727 19.7887C33.1198 19.3512 32.961 18.9332 32.7102 18.5708C32.4593 18.2085 32.124 17.9128 31.7331 17.7093C30.5198 17.0302 28.4036 17.5661 24.2208 18.669C23.7788 18.7941 23.3148 18.8214 22.8611 18.749C22.2611 18.6449 21.7049 18.3668 21.2616 17.9492C23.5979 17.3493 25.8936 16.6013 28.1349 15.7098C30.3823 14.8173 33.0615 12.6531 34.8082 11.7109C35.9279 12.0844 36.3662 13.6616 37.485 14.0343L36.0455 15.9537C34.9058 18.2238 34.0978 20.6457 33.6461 23.1453C33.5162 23.1559 33.3854 23.1401 33.2617 23.0989C33.138 23.0576 33.024 22.9918 32.9263 22.9054C32.7112 22.6783 32.7064 22.3408 32.7728 21.7881Z" fill="#8B72FC"/>
<path d="M25.828 20.7775C26.0418 20.9212 26.2906 21.0042 26.5478 21.0174C27.0669 21.035 27.4795 20.7191 28.2273 19.9777C28.692 19.5171 29.2734 18.9045 29.9069 18.1383C29.3356 18.0667 28.7557 18.1495 28.2273 18.3782L25.828 20.7775Z" fill="#8B72FC"/>
<path d="M22.7108 20.5362C22.9403 20.5381 23.1698 20.5261 23.3978 20.5002C23.7329 20.4583 24.0642 20.3904 24.3887 20.2971C25.2366 19.9855 26.0221 19.5251 26.7081 18.9375L24.1488 19.4173C23.7922 19.49 23.4612 19.6556 23.1891 19.8972C22.9892 20.0768 22.8267 20.2939 22.7108 20.5362Z" fill="#8B72FC"/>
<path d="M14.4596 24.5648C14.5315 25.7925 14.3332 26.1164 14.4172 26.6018C14.5461 27.0229 14.7757 27.4062 15.086 27.7186C15.3963 28.031 15.7781 28.2632 16.1983 28.3949C17.5115 28.85 19.5006 27.9502 23.4243 26.1316C23.837 25.9301 24.2887 25.8209 24.7479 25.8117C25.3564 25.8089 25.9524 25.985 26.4618 26.3179C24.2674 27.3181 22.1389 28.4569 20.0892 29.7274C18.0346 31.0014 15.7768 33.6031 14.2236 34.8379C13.0568 34.6676 12.3466 33.192 11.1797 33.0216L12.2586 30.8806C12.9811 28.4456 13.3507 25.9195 13.3559 23.3795C13.4819 23.3464 13.6132 23.339 13.7422 23.3578C13.8711 23.3766 13.9948 23.4213 14.1061 23.4891C14.3668 23.6778 14.4276 24.009 14.4596 24.5648Z" fill="#8B72FC"/>
<path d="M21.4752 24.3394C21.2397 24.2357 20.9804 24.1978 20.725 24.2298C20.2107 24.3034 19.8596 24.6873 19.255 25.5471C18.8783 26.0829 18.4144 26.7875 17.9258 27.6513C18.5002 27.6212 19.0561 27.4378 19.5357 27.1202L21.4752 24.3394Z" fill="#8B72FC"/>
<path d="M24.5862 24.0273C24.3597 24.067 24.1359 24.1204 23.916 24.1873C23.5935 24.2875 23.2793 24.4127 22.9762 24.5616C22.1971 25.017 21.5054 25.6077 20.9336 26.306L23.3665 25.3846C23.7044 25.2506 24.0009 25.0299 24.2263 24.7448C24.3925 24.5318 24.5148 24.2879 24.5862 24.0273Z" fill="#8B72FC"/>
</svg>
