<svg width="159" height="44" viewBox="0 0 159 44" fill="none" xmlns="http://www.w3.org/2000/svg">
<path fill-rule="evenodd" clip-rule="evenodd" d="M22.2222 44C34.4952 44 44.4444 34.1503 44.4444 22C44.4444 9.84974 34.4952 0 22.2222 0C9.94923 0 0 9.84974 0 22C0 34.1503 9.94923 44 22.2222 44Z" fill="#8B72FC"/>
<mask id="mask0_1391_1241" style="mask-type:luminance" maskUnits="userSpaceOnUse" x="0" y="0" width="45" height="44">
<path fill-rule="evenodd" clip-rule="evenodd" d="M22.2222 44C34.4952 44 44.4444 34.1503 44.4444 22C44.4444 9.84974 34.4952 0 22.2222 0C9.94923 0 0 9.84974 0 22C0 34.1503 9.94923 44 22.2222 44Z" fill="white"/>
</mask>
<g mask="url(#mask0_1391_1241)">
</g>
<path d="M55.7625 17.5V9.072H52.8085V7.896H60.2145V9.072H57.2605V17.5H55.7625ZM63.8446 17.64C63.2099 17.64 62.6499 17.5047 62.1646 17.234C61.6886 16.954 61.3153 16.548 61.0446 16.016C60.7739 15.4747 60.6386 14.826 60.6386 14.07V13.776C60.6386 13.0107 60.7786 12.362 61.0586 11.83C61.3479 11.298 61.7399 10.8967 62.2346 10.626C62.7293 10.346 63.2939 10.206 63.9286 10.206H64.0826C64.6613 10.206 65.1746 10.3273 65.6226 10.57C66.0706 10.8127 66.4159 11.158 66.6586 11.606C66.9106 12.054 67.0366 12.586 67.0366 13.202V14.098H62.0946C62.0946 14.63 62.1646 15.0873 62.3046 15.47C62.4539 15.8527 62.6639 16.1467 62.9346 16.352C63.2146 16.548 63.5553 16.646 63.9566 16.646C64.2926 16.646 64.5913 16.5807 64.8526 16.45C65.1139 16.3193 65.3239 16.1187 65.4826 15.848C65.6413 15.5773 65.7206 15.2413 65.7206 14.84H67.0366C67.0366 15.4093 66.9013 15.904 66.6306 16.324C66.3599 16.744 65.9913 17.0707 65.5246 17.304C65.0673 17.528 64.5493 17.64 63.9706 17.64H63.8446ZM62.1086 13.258H65.6646C65.6646 12.558 65.5106 12.04 65.2026 11.704C64.9039 11.368 64.4839 11.2 63.9426 11.2C63.4479 11.2 63.0233 11.3727 62.6686 11.718C62.3233 12.0633 62.1366 12.5767 62.1086 13.258ZM71.7447 17.64C71.1473 17.64 70.6153 17.4953 70.1487 17.206C69.682 16.9073 69.3133 16.492 69.0427 15.96C68.7813 15.428 68.6507 14.8027 68.6507 14.084V13.748C68.6507 13.2067 68.73 12.7213 68.8887 12.292C69.0567 11.8533 69.2807 11.48 69.5607 11.172C69.85 10.8547 70.186 10.6167 70.5687 10.458C70.9607 10.29 71.3807 10.206 71.8287 10.206H71.9827C72.5707 10.206 73.084 10.3273 73.5227 10.57C73.9613 10.8033 74.302 11.1393 74.5447 11.578C74.7967 12.0073 74.9227 12.53 74.9227 13.146H73.6767C73.6767 12.7073 73.602 12.3433 73.4527 12.054C73.3033 11.7647 73.098 11.55 72.8367 11.41C72.5753 11.27 72.2813 11.2 71.9547 11.2C71.4227 11.2 70.9793 11.382 70.6247 11.746C70.2793 12.11 70.1067 12.6607 70.1067 13.398V14.42C70.1067 15.1573 70.2793 15.7127 70.6247 16.086C70.97 16.4593 71.418 16.646 71.9687 16.646C72.314 16.646 72.6173 16.5807 72.8787 16.45C73.14 16.31 73.3453 16.1 73.4947 15.82C73.644 15.5307 73.7187 15.1573 73.7187 14.7H74.9227C74.9227 15.3253 74.7873 15.8573 74.5167 16.296C74.2553 16.7347 73.896 17.0707 73.4387 17.304C72.9907 17.528 72.482 17.64 71.9127 17.64H71.7447ZM76.7243 17.5V7.42H78.1243V11.298C78.3763 10.934 78.6983 10.6633 79.0903 10.486C79.4916 10.2993 79.9023 10.206 80.3223 10.206C80.8076 10.206 81.237 10.2993 81.6103 10.486C81.9836 10.6727 82.2776 10.9527 82.4923 11.326C82.7163 11.69 82.8283 12.1473 82.8283 12.698V17.5H81.4283V12.936C81.4283 12.348 81.2883 11.928 81.0083 11.676C80.7376 11.4147 80.355 11.284 79.8603 11.284C79.543 11.284 79.249 11.3633 78.9783 11.522C78.717 11.6807 78.507 11.8953 78.3483 12.166C78.199 12.4273 78.1243 12.7307 78.1243 13.076V17.5H76.7243ZM85.0641 17.5V10.346H86.1001L86.2961 11.396C86.3055 11.3773 86.3475 11.3073 86.4221 11.186C86.4968 11.0647 86.6088 10.9293 86.7581 10.78C86.9168 10.6213 87.1175 10.486 87.3601 10.374C87.6121 10.262 87.9201 10.206 88.2841 10.206C88.7788 10.206 89.1848 10.3087 89.5021 10.514C89.8288 10.71 90.0668 10.9807 90.2161 11.326C90.3748 11.6713 90.4541 12.0633 90.4541 12.502C90.4541 12.5953 90.4495 12.6933 90.4401 12.796C90.4308 12.8893 90.4261 12.964 90.4261 13.02H89.2221V12.754C89.2221 12.5487 89.1801 12.334 89.0961 12.11C89.0215 11.8767 88.8861 11.6853 88.6901 11.536C88.4941 11.3773 88.2188 11.298 87.8641 11.298C87.6028 11.298 87.3788 11.354 87.1921 11.466C87.0148 11.578 86.8701 11.718 86.7581 11.886C86.6555 12.054 86.5808 12.2313 86.5341 12.418C86.4875 12.6047 86.4641 12.7773 86.4641 12.936V17.5H85.0641ZM92.0531 17.5V10.346H93.4531V17.5H92.0531ZM92.0111 8.596V7.42H93.4951V8.596H92.0111ZM97.8689 17.64C97.5235 17.64 97.2109 17.584 96.9309 17.472C96.6602 17.36 96.4455 17.1827 96.2869 16.94C96.1375 16.688 96.0629 16.3567 96.0629 15.946V11.438H95.2789V10.346H96.1049L96.5949 8.064H97.4629V10.346H99.1289V11.438H97.4629V15.694C97.4629 16.1047 97.5469 16.366 97.7149 16.478C97.8829 16.59 98.0649 16.646 98.2609 16.646C98.3635 16.646 98.5035 16.6227 98.6809 16.576C98.8675 16.5293 99.0169 16.4827 99.1289 16.436V17.374C99.0262 17.43 98.9002 17.4767 98.7509 17.514C98.6109 17.5607 98.4615 17.5933 98.3029 17.612C98.1535 17.6307 98.0089 17.64 97.8689 17.64ZM101.637 20.104C101.431 20.104 101.245 20.0853 101.077 20.048C100.909 20.02 100.745 19.9733 100.587 19.908V18.816C100.689 18.8533 100.82 18.8907 100.979 18.928C101.137 18.9653 101.291 18.984 101.441 18.984C101.683 18.984 101.884 18.9327 102.043 18.83C102.201 18.7367 102.346 18.5733 102.477 18.34C102.617 18.1067 102.757 17.7893 102.897 17.388L100.097 10.346H101.595L103.583 15.638H103.653L105.599 10.346H106.985L104.297 17.206C104.091 17.738 103.872 18.2233 103.639 18.662C103.415 19.1007 103.144 19.4507 102.827 19.712C102.509 19.9733 102.113 20.104 101.637 20.104ZM114.845 17.5V7.896H120.949L120.767 9.072H116.329V12.096H120.207V13.272H116.329V17.5H114.845ZM125.219 17.64C124.603 17.64 124.047 17.4953 123.553 17.206C123.067 16.9167 122.685 16.5013 122.405 15.96C122.125 15.4187 121.985 14.7793 121.985 14.042V13.804C121.985 13.048 122.125 12.404 122.405 11.872C122.685 11.3307 123.067 10.92 123.553 10.64C124.047 10.3507 124.603 10.206 125.219 10.206H125.401C126.026 10.206 126.581 10.3507 127.067 10.64C127.552 10.9293 127.935 11.3447 128.215 11.886C128.495 12.418 128.635 13.0573 128.635 13.804V14.042C128.635 14.7793 128.495 15.4187 128.215 15.96C127.935 16.5013 127.547 16.9167 127.053 17.206C126.567 17.4953 126.017 17.64 125.401 17.64H125.219ZM125.303 16.646C125.657 16.646 125.975 16.562 126.255 16.394C126.535 16.226 126.759 15.974 126.927 15.638C127.095 15.302 127.179 14.8867 127.179 14.392V13.454C127.179 12.95 127.095 12.5347 126.927 12.208C126.759 11.872 126.535 11.62 126.255 11.452C125.975 11.284 125.657 11.2 125.303 11.2C124.957 11.2 124.645 11.284 124.365 11.452C124.085 11.62 123.861 11.872 123.693 12.208C123.525 12.5347 123.441 12.95 123.441 13.454V14.392C123.441 14.8867 123.525 15.302 123.693 15.638C123.861 15.974 124.085 16.226 124.365 16.394C124.645 16.562 124.957 16.646 125.303 16.646ZM132.889 17.64C132.151 17.64 131.563 17.4393 131.125 17.038C130.686 16.6273 130.467 15.9973 130.467 15.148V10.346H131.867V14.812C131.867 15.4373 131.993 15.8853 132.245 16.156C132.497 16.4173 132.865 16.548 133.351 16.548C133.677 16.548 133.976 16.4733 134.247 16.324C134.527 16.1653 134.751 15.9507 134.919 15.68C135.087 15.4093 135.171 15.106 135.171 14.77V10.346H136.571V16.17C136.571 16.338 136.608 16.4593 136.683 16.534C136.767 16.6087 136.86 16.646 136.963 16.646C137.065 16.646 137.173 16.6273 137.285 16.59C137.397 16.5527 137.499 16.506 137.593 16.45V17.346C137.471 17.4393 137.322 17.5093 137.145 17.556C136.967 17.612 136.762 17.64 136.529 17.64C136.23 17.64 135.992 17.584 135.815 17.472C135.637 17.36 135.507 17.2153 135.423 17.038C135.339 16.8513 135.278 16.6553 135.241 16.45C135.007 16.8233 134.676 17.1173 134.247 17.332C133.817 17.5373 133.365 17.64 132.889 17.64ZM139.232 17.5V10.346H140.24L140.436 11.396C140.697 11.004 141.033 10.71 141.444 10.514C141.864 10.3087 142.317 10.206 142.802 10.206C143.297 10.206 143.731 10.2993 144.104 10.486C144.487 10.6727 144.785 10.9527 145 11.326C145.215 11.69 145.322 12.1473 145.322 12.698V17.5H143.922V12.936C143.922 12.348 143.787 11.928 143.516 11.676C143.245 11.4147 142.863 11.284 142.368 11.284C142.051 11.284 141.757 11.3633 141.486 11.522C141.225 11.6807 141.015 11.8953 140.856 12.166C140.707 12.4273 140.632 12.7307 140.632 13.076V17.5H139.232ZM147.488 17.5V16.002H148.986V17.5H147.488ZM151.057 17.5V16.002H152.555V17.5H151.057ZM154.625 17.5V16.002H156.123V17.5H154.625Z" fill="#404040"/>
<path d="M55.3965 28.268L58.0485 34.748H58.0965L60.7605 28.268H62.5965V36.5H61.4205V29.648H61.3485L58.5045 36.5H57.5085L54.6765 29.648H54.6165V36.5H53.5485V28.268H55.3965ZM67.1622 30.248C68.6742 30.248 69.7302 31.256 69.7302 32.84V33.692H65.4462C65.4822 34.964 66.0342 35.72 67.1862 35.72C68.2782 35.72 68.6622 34.94 68.6622 34.22H69.7302C69.7302 35.672 68.6622 36.62 67.1622 36.62H67.1142C65.3742 36.62 64.3182 35.408 64.3182 33.56V33.32C64.3182 31.496 65.3742 30.248 67.0782 30.248H67.1622ZM67.1022 31.148C66.2022 31.148 65.6022 31.7 65.4702 32.816H68.6142C68.6142 31.7 68.0142 31.148 67.1022 31.148ZM74.2741 30.248C75.0781 30.248 75.6421 30.584 75.9541 31.268C76.5421 30.44 77.2141 30.248 77.8381 30.248C79.0861 30.248 79.8421 31.004 79.8421 32.372V36.5H78.7141V32.576C78.7141 31.628 78.3421 31.148 77.6101 31.148C76.8301 31.148 76.1701 31.892 76.1701 32.852V36.5H75.0421V32.576C75.0421 31.628 74.6701 31.148 73.9381 31.148C73.1581 31.148 72.4981 31.892 72.4981 32.852V36.5H71.3701V30.368H72.1861L72.3421 31.268C72.8101 30.584 73.4581 30.248 74.2741 30.248ZM84.6804 30.248C86.2644 30.248 87.1524 31.46 87.1524 33.296V33.428C87.1524 35.42 86.2044 36.62 84.6684 36.62C83.7564 36.62 83.0724 36.26 82.6044 35.528L82.2084 36.5H81.7764V27.86H82.9044V31.148C83.2524 30.656 83.9124 30.248 84.6804 30.248ZM84.4524 31.148C83.3964 31.148 82.8924 31.88 82.8924 33.404V33.464C82.8924 35.012 83.4084 35.72 84.4524 35.72C85.4964 35.72 86.0244 34.964 86.0244 33.464V33.356C86.0244 31.868 85.4604 31.148 84.4524 31.148ZM91.2325 30.248C92.7445 30.248 93.8005 31.256 93.8005 32.84V33.692H89.5165C89.5525 34.964 90.1045 35.72 91.2565 35.72C92.3485 35.72 92.7325 34.94 92.7325 34.22H93.8005C93.8005 35.672 92.7325 36.62 91.2325 36.62H91.1845C89.4445 36.62 88.3885 35.408 88.3885 33.56V33.32C88.3885 31.496 89.4445 30.248 91.1485 30.248H91.2325ZM91.1725 31.148C90.2725 31.148 89.6725 31.7 89.5405 32.816H92.6845C92.6845 31.7 92.0845 31.148 91.1725 31.148ZM98.2005 30.248C99.3885 30.248 100.012 31.112 100.012 32.168C100.012 32.324 100 32.468 99.9765 32.624H98.9805V32.36C98.9805 31.592 98.6205 31.148 97.8525 31.148C97.0245 31.148 96.5685 31.808 96.5685 32.84V36.5H95.4405V30.368H96.2445L96.4125 31.28C96.6645 30.788 97.2405 30.248 98.2005 30.248Z" fill="#53547B"/>
<path d="M38.0673 22.407L24.1264 8.4661C23.8278 8.16765 23.4229 8 23.0007 8C22.5785 8 22.1736 8.16765 21.875 8.4661L7.93252 22.4094C7.62689 22.7151 7.38671 23.0798 7.22658 23.4813C7.06645 23.8829 6.98973 24.3128 7.0011 24.7449C7.01248 25.177 7.1117 25.6023 7.29273 25.9948C7.47376 26.3874 7.73281 26.7389 8.05409 27.0281L13.7397 32.1467C14.3147 32.6642 15.0584 32.9547 15.8319 32.9642C16.6054 32.9736 17.3559 32.7012 17.9433 32.1979L20.9305 29.6386C21.5072 29.1444 22.2416 28.8728 23.0011 28.8728C23.7606 28.8728 24.495 29.1444 25.0717 29.6386L28.0581 32.1979C28.6456 32.7014 29.3963 32.9739 30.17 32.9645C30.9436 32.9551 31.6875 32.6644 32.2625 32.1467L37.9457 27.0281C38.2671 26.7387 38.5262 26.3869 38.7072 25.9942C38.8883 25.6015 38.9875 25.176 38.9989 24.7437C39.0103 24.3114 38.9335 23.8813 38.7734 23.4796C38.6132 23.0778 38.373 22.7129 38.0673 22.407Z" fill="white"/>
<path d="M32.7728 21.2881C32.9183 20.0669 33.1727 19.7829 33.1727 19.2887C33.1198 18.8512 32.961 18.4332 32.7102 18.0708C32.4593 17.7085 32.124 17.4128 31.7331 17.2093C30.5198 16.5302 28.4036 17.0661 24.2208 18.169C23.7788 18.2941 23.3148 18.3214 22.8611 18.249C22.2611 18.1449 21.7049 17.8668 21.2616 17.4492C23.5979 16.8493 25.8936 16.1013 28.1349 15.2098C30.3823 14.3173 33.0615 12.1531 34.8082 11.2109C35.9279 11.5844 36.3662 13.1616 37.485 13.5343L36.0455 15.4537C34.9058 17.7238 34.0978 20.1457 33.6461 22.6453C33.5162 22.6559 33.3854 22.6401 33.2617 22.5989C33.138 22.5576 33.024 22.4918 32.9263 22.4054C32.7112 22.1783 32.7064 21.8408 32.7728 21.2881Z" fill="#8B72FC"/>
<path d="M25.828 20.2775C26.0418 20.4212 26.2906 20.5042 26.5478 20.5174C27.0669 20.535 27.4795 20.2191 28.2273 19.4777C28.692 19.0171 29.2734 18.4045 29.9069 17.6383C29.3356 17.5667 28.7557 17.6495 28.2273 17.8782L25.828 20.2775Z" fill="#8B72FC"/>
<path d="M22.7108 20.0362C22.9403 20.0381 23.1698 20.0261 23.3978 20.0002C23.7329 19.9583 24.0642 19.8904 24.3887 19.7971C25.2366 19.4855 26.0221 19.0251 26.7081 18.4375L24.1488 18.9173C23.7922 18.99 23.4612 19.1556 23.1891 19.3972C22.9892 19.5768 22.8267 19.7939 22.7108 20.0362Z" fill="#8B72FC"/>
<path d="M14.4596 24.0648C14.5315 25.2925 14.3332 25.6164 14.4172 26.1018C14.5461 26.5229 14.7757 26.9062 15.086 27.2186C15.3963 27.531 15.7781 27.7632 16.1983 27.8949C17.5115 28.35 19.5006 27.4502 23.4243 25.6316C23.837 25.4301 24.2887 25.3209 24.7479 25.3117C25.3564 25.3089 25.9524 25.485 26.4618 25.8179C24.2674 26.8181 22.1389 27.9569 20.0892 29.2274C18.0346 30.5014 15.7768 33.1031 14.2236 34.3379C13.0568 34.1676 12.3466 32.692 11.1797 32.5216L12.2586 30.3806C12.9811 27.9456 13.3507 25.4195 13.3559 22.8795C13.4819 22.8464 13.6132 22.839 13.7422 22.8578C13.8711 22.8766 13.9948 22.9213 14.1061 22.9891C14.3668 23.1778 14.4276 23.509 14.4596 24.0648Z" fill="#8B72FC"/>
<path d="M21.4752 23.8394C21.2397 23.7357 20.9804 23.6978 20.725 23.7298C20.2107 23.8034 19.8596 24.1873 19.255 25.0471C18.8783 25.5829 18.4144 26.2875 17.9258 27.1513C18.5002 27.1212 19.0561 26.9378 19.5357 26.6202L21.4752 23.8394Z" fill="#8B72FC"/>
<path d="M24.5862 23.5273C24.3597 23.567 24.1359 23.6204 23.916 23.6873C23.5935 23.7875 23.2793 23.9127 22.9762 24.0616C22.1971 24.517 21.5054 25.1077 20.9336 25.806L23.3665 24.8846C23.7044 24.7506 24.0009 24.5299 24.2263 24.2448C24.3925 24.0318 24.5148 23.7879 24.5862 23.5273Z" fill="#8B72FC"/>
</svg>
