<svg width="22" height="22" viewBox="0 0 22 22" fill="none" xmlns="http://www.w3.org/2000/svg">
<path d="M12.2129 13.6963C12.1483 13.7565 12.0965 13.8291 12.0606 13.9098C12.0247 13.9904 12.0053 14.0775 12.0038 14.1657C12.0022 14.254 12.0185 14.3417 12.0515 14.4236C12.0846 14.5054 12.1338 14.5798 12.1962 14.6422C12.2587 14.7047 12.333 14.7539 12.4149 14.787C12.4968 14.82 12.5845 14.8363 12.6727 14.8347C12.761 14.8331 12.8481 14.8138 12.9287 14.7779C13.0094 14.742 13.0819 14.6901 13.1421 14.6256L16.6486 11.1191C16.7717 10.9958 16.8409 10.8287 16.8409 10.6545C16.8409 10.4803 16.7717 10.3131 16.6486 10.1899L13.1421 6.68341C13.0819 6.61881 13.0094 6.567 12.9287 6.53107C12.8481 6.49513 12.761 6.47581 12.6727 6.47426C12.5845 6.4727 12.4968 6.48894 12.4149 6.522C12.333 6.55507 12.2587 6.60429 12.1962 6.66672C12.1338 6.72915 12.0846 6.80352 12.0515 6.88538C12.0185 6.96725 12.0022 7.05493 12.0038 7.14321C12.0053 7.23149 12.0247 7.31855 12.0606 7.3992C12.0965 7.47985 12.1483 7.55243 12.2129 7.61262L14.5973 9.99702H6.10291C5.92854 9.99702 5.76131 10.0663 5.63801 10.1896C5.51472 10.3129 5.44545 10.4801 5.44545 10.6545C5.44545 10.8289 5.51472 10.9961 5.63801 11.1194C5.76131 11.2427 5.92854 11.3119 6.10291 11.3119H14.5973L12.2129 13.6963Z" fill="white"/>
</svg>
