<svg width="12" height="12" viewBox="0 0 12 12" fill="none" xmlns="http://www.w3.org/2000/svg">
<path d="M5.94925 11.0474C3.15358 11.0474 0.881226 8.775 0.881226 5.97934C0.881226 3.18368 3.15358 0.911316 5.94925 0.911316C8.74491 0.911316 11.0173 3.18368 11.0173 5.97934C11.0173 8.775 8.74491 11.0474 5.94925 11.0474ZM5.94925 1.61848C3.54488 1.61848 1.58839 3.57497 1.58839 5.97934C1.58839 8.3837 3.54488 10.3402 5.94925 10.3402C8.35361 10.3402 10.3101 8.3837 10.3101 5.97934C10.3101 3.57497 8.35361 1.61848 5.94925 1.61848Z" fill="#1F0954"/>
<path d="M7.70034 7.83394C7.63905 7.83394 7.57776 7.8198 7.52119 7.78208L6.05971 6.90991C5.6967 6.69305 5.42798 6.21689 5.42798 5.79731V3.86439C5.42798 3.67109 5.58827 3.5108 5.78156 3.5108C5.97485 3.5108 6.13514 3.67109 6.13514 3.86439V5.79731C6.13514 5.96703 6.27658 6.21689 6.42272 6.30175L7.8842 7.17392C8.05392 7.27292 8.10578 7.48979 8.00678 7.65951C7.93606 7.77266 7.8182 7.83394 7.70034 7.83394Z" fill="#1F0954"/>
</svg>
