<svg width="12" height="12" viewBox="0 0 12 12" fill="none" xmlns="http://www.w3.org/2000/svg">
<path d="M8.45749 2.7201V1.78946M4.2696 2.7201V1.78946M2.29199 4.11606H10.4351M2.17566 5.06718C2.17566 4.08303 2.17566 3.59072 2.37854 3.21474C2.56189 2.8793 2.84658 2.61041 3.19192 2.44649C3.59024 2.25478 4.11139 2.25478 5.15371 2.25478H7.57338C8.6157 2.25478 9.13686 2.25478 9.53518 2.44649C9.88556 2.61494 10.1699 2.88389 10.3486 3.21427C10.5514 3.59118 10.5514 4.08349 10.5514 5.06765V7.3533C10.5514 8.33746 10.5514 8.82977 10.3486 9.20575C10.1652 9.54118 9.88052 9.81007 9.53518 9.97399C9.13686 10.1652 8.6157 10.1652 7.57338 10.1652H5.15371C4.11139 10.1652 3.59024 10.1652 3.19192 9.97352C2.84665 9.80973 2.56197 9.54101 2.37854 9.20575C2.17566 8.82884 2.17566 8.33653 2.17566 7.35237V5.06718Z" stroke="#1F0954" strokeWidth="0.697982" strokeLinecap="round" strokeLinejoin="round"/>
</svg>
