<svg width="14" height="14" viewBox="0 0 14 14" fill="none" xmlns="http://www.w3.org/2000/svg">
<path d="M6.70927 8.31948C7.61635 8.31948 8.35168 7.58415 8.35168 6.67708C8.35168 5.77 7.61635 5.03467 6.70927 5.03467C5.8022 5.03467 5.06686 5.77 5.06686 6.67708C5.06686 7.58415 5.8022 8.31948 6.70927 8.31948Z" stroke="white" stroke-width="0.739084" stroke-miterlimit="10" stroke-linecap="round" stroke-linejoin="round"/>
<path d="M1.23459 7.1588V6.19526C1.23459 5.62589 1.69994 5.15507 2.27478 5.15507C3.2657 5.15507 3.67083 4.4543 3.17263 3.59478C2.88795 3.10206 3.05766 2.46152 3.55586 2.17683L4.50298 1.63484C4.93548 1.37753 5.4939 1.53082 5.75121 1.96332L5.81143 2.06734C6.30415 2.92687 7.11441 2.92687 7.61261 2.06734L7.67283 1.96332C7.93014 1.53082 8.48856 1.37753 8.92106 1.63484L9.86818 2.17683C10.3664 2.46152 10.5361 3.10206 10.2514 3.59478C9.75321 4.4543 10.1583 5.15507 11.1493 5.15507C11.7186 5.15507 12.1894 5.62041 12.1894 6.19526V7.1588C12.1894 7.72817 11.7241 8.19899 11.1493 8.19899C10.1583 8.19899 9.75321 8.89976 10.2514 9.75928C10.5361 10.2575 10.3664 10.8925 9.86818 11.1772L8.92106 11.7192C8.48856 11.9765 7.93014 11.8232 7.67283 11.3907L7.61261 11.2867C7.11988 10.4272 6.30963 10.4272 5.81143 11.2867L5.75121 11.3907C5.4939 11.8232 4.93548 11.9765 4.50298 11.7192L3.55586 11.1772C3.05766 10.8925 2.88795 10.252 3.17263 9.75928C3.67083 8.89976 3.2657 8.19899 2.27478 8.19899C1.69994 8.19899 1.23459 7.72817 1.23459 7.1588Z" stroke="white" stroke-width="0.739084" stroke-miterlimit="10" stroke-linecap="round" stroke-linejoin="round"/>
</svg>
