<svg width="14" height="14" viewBox="0 0 14 14" fill="none" xmlns="http://www.w3.org/2000/svg">
<path d="M6.78706 8.56417C7.69414 8.56417 8.42947 7.82884 8.42947 6.92177C8.42947 6.01469 7.69414 5.27936 6.78706 5.27936C5.87998 5.27936 5.14465 6.01469 5.14465 6.92177C5.14465 7.82884 5.87998 8.56417 6.78706 8.56417Z" stroke="white" stroke-width="0.739084" stroke-miterlimit="10" stroke-linecap="round" stroke-linejoin="round"/>
<path d="M1.31232 7.40355V6.44001C1.31232 5.87064 1.77767 5.39982 2.35251 5.39982C3.34343 5.39982 3.74856 4.69906 3.25036 3.83953C2.96567 3.34681 3.13539 2.70627 3.63359 2.42158L4.58071 1.87959C5.01321 1.62228 5.57163 1.77557 5.82894 2.20807L5.88916 2.31209C6.38188 3.17162 7.19214 3.17162 7.69033 2.31209L7.75056 2.20807C8.00787 1.77557 8.56629 1.62228 8.99879 1.87959L9.94591 2.42158C10.4441 2.70627 10.6138 3.34681 10.3291 3.83953C9.83094 4.69906 10.2361 5.39982 11.227 5.39982C11.7964 5.39982 12.2672 5.86517 12.2672 6.44001V7.40355C12.2672 7.97292 11.8018 8.44375 11.227 8.44375C10.2361 8.44375 9.83094 9.14451 10.3291 10.004C10.6138 10.5022 10.4441 11.1373 9.94591 11.422L8.99879 11.964C8.56629 12.2213 8.00787 12.068 7.75056 11.6355L7.69033 11.5315C7.19761 10.6719 6.38736 10.6719 5.88916 11.5315L5.82894 11.6355C5.57163 12.068 5.01321 12.2213 4.58071 11.964L3.63359 11.422C3.13539 11.1373 2.96567 10.4968 3.25036 10.004C3.74856 9.14451 3.34343 8.44375 2.35251 8.44375C1.77767 8.44375 1.31232 7.97292 1.31232 7.40355Z" stroke="white" stroke-width="0.739084" stroke-miterlimit="10" stroke-linecap="round" stroke-linejoin="round"/>
</svg>
