<svg fill="none" height="24" viewBox="0 0 24 24" width="24" xmlns="http://www.w3.org/2000/svg"><g fill="#292d32"><path d="m3.5 18.75c-.41 0-.75-.34-.75-.75v-11c0-4.41 1.34-5.75 5.75-5.75h7c4.41 0 5.75 1.34 5.75 5.75v10c0 .16 0 .31-.01.47-.03.41-.4.73-.8.7-.41-.03-.73-.39-.7-.8.01-.12.01-.25.01-.37v-10c0-3.57-.67-4.25-4.25-4.25h-7c-3.58 0-4.25.68-4.25 4.25v11c0 .41-.34.75-.75.75z"/><path d="m17 22.75h-10c-2.34 0-4.25-1.91-4.25-4.25v-.65c0-1.99 1.62-3.6 3.6-3.6h14.15c.41 0 .75.34.75.75v3.5c0 2.34-1.91 4.25-4.25 4.25zm-10.65-7c-1.16 0-2.1.94-2.1 2.1v.65c0 1.52 1.23 2.75 2.75 2.75h10c1.52 0 2.75-1.23 2.75-2.75v-2.75z"/><path d="m16 7.75h-8c-.41 0-.75-.34-.75-.75s.34-.75.75-.75h8c.41 0 .75.34.75.75s-.34.75-.75.75z"/><path d="m13 11.25h-5c-.41 0-.75-.34-.75-.75s.34-.75.75-.75h5c.41 0 .75.34.75.75s-.34.75-.75.75z"/></g></svg>