<svg width="60" height="12" viewBox="0 0 60 12" fill="none" xmlns="http://www.w3.org/2000/svg">
<rect x="0.351562" y="0.0546875" width="59.0997" height="11.2848" rx="5.64241" fill="#D4E0F3"/>
<circle cx="12.259" cy="5.69708" r="2.05301" fill="#0077FF"/>
<path d="M18.0633 7.69708V3.19031H20.3298C20.5575 3.19031 20.7612 3.23192 20.9408 3.31514C21.1247 3.39835 21.2693 3.5188 21.3744 3.67647C21.4795 3.83414 21.532 4.02466 21.532 4.24803C21.532 4.46263 21.4948 4.64439 21.4204 4.79331C21.3459 4.93784 21.2495 5.0539 21.1313 5.1415C21.0174 5.22909 20.8948 5.29479 20.7634 5.33858V5.37143C20.8597 5.39333 20.9583 5.42837 21.059 5.47655C21.1598 5.52034 21.2539 5.58385 21.3415 5.66707C21.4291 5.7459 21.4992 5.84445 21.5518 5.9627C21.6087 6.08095 21.6372 6.2233 21.6372 6.38973C21.6372 6.64813 21.5758 6.87588 21.4532 7.07297C21.335 7.26568 21.1773 7.41897 20.9802 7.53284C20.7831 7.64234 20.5619 7.69708 20.3167 7.69708H18.0633ZM19.0947 6.88245H20.0342C20.1437 6.88245 20.2378 6.85836 20.3167 6.81018C20.3955 6.75763 20.4568 6.68755 20.5006 6.59995C20.5488 6.51236 20.5729 6.41381 20.5729 6.30432C20.5729 6.19045 20.5488 6.09628 20.5006 6.02183C20.4524 5.94737 20.3867 5.89043 20.3035 5.85102C20.2247 5.8116 20.1371 5.79189 20.0407 5.79189H19.0947V6.88245ZM19.0947 5.00353H20.0013C20.1064 5.00353 20.194 4.97944 20.2641 4.93127C20.3386 4.87871 20.3933 4.81082 20.4283 4.72761C20.4678 4.64001 20.4875 4.54804 20.4875 4.45168C20.4875 4.28963 20.4459 4.17138 20.3626 4.09692C20.2838 4.01809 20.1743 3.97867 20.0342 3.97867H19.0947V5.00353ZM23.6755 7.76278C23.3602 7.76278 23.0777 7.6927 22.8281 7.55255C22.5784 7.4124 22.3813 7.2175 22.2368 6.96785C22.0966 6.71383 22.0266 6.41819 22.0266 6.08095V5.95613C22.0266 5.61451 22.0966 5.31888 22.2368 5.06923C22.3813 4.8152 22.5784 4.6203 22.8281 4.48453C23.0777 4.34438 23.3602 4.2743 23.6755 4.2743H23.8332C24.1486 4.2743 24.431 4.34438 24.6807 4.48453C24.9303 4.6203 25.1252 4.8152 25.2654 5.06923C25.4099 5.31888 25.4822 5.61451 25.4822 5.95613V6.08095C25.4822 6.41819 25.4099 6.71383 25.2654 6.96785C25.1252 7.22188 24.9303 7.41897 24.6807 7.55912C24.431 7.69489 24.1486 7.76278 23.8332 7.76278H23.6755ZM23.7544 7.10582C23.8726 7.10582 23.9777 7.07735 24.0697 7.02041C24.1661 6.96347 24.2427 6.88245 24.2997 6.77733C24.3566 6.66784 24.3851 6.54083 24.3851 6.3963V5.64079C24.3851 5.49188 24.3566 5.36486 24.2997 5.25975C24.2427 5.15464 24.1661 5.07361 24.0697 5.01667C23.9777 4.95974 23.8726 4.93127 23.7544 4.93127C23.6361 4.93127 23.5288 4.95974 23.4325 5.01667C23.3405 5.07361 23.266 5.15464 23.2091 5.25975C23.1522 5.36486 23.1237 5.49188 23.1237 5.64079V6.3963C23.1237 6.54083 23.1522 6.66784 23.2091 6.77733C23.266 6.88245 23.3405 6.96347 23.4325 7.02041C23.5288 7.07735 23.6361 7.10582 23.7544 7.10582ZM27.509 7.76278C27.1937 7.76278 26.9112 7.6927 26.6615 7.55255C26.4119 7.4124 26.2148 7.2175 26.0703 6.96785C25.9301 6.71383 25.86 6.41819 25.86 6.08095V5.95613C25.86 5.61451 25.9301 5.31888 26.0703 5.06923C26.2148 4.8152 26.4119 4.6203 26.6615 4.48453C26.9112 4.34438 27.1937 4.2743 27.509 4.2743H27.6667C27.982 4.2743 28.2645 4.34438 28.5142 4.48453C28.7638 4.6203 28.9587 4.8152 29.0989 5.06923C29.2434 5.31888 29.3157 5.61451 29.3157 5.95613V6.08095C29.3157 6.41819 29.2434 6.71383 29.0989 6.96785C28.9587 7.22188 28.7638 7.41897 28.5142 7.55912C28.2645 7.69489 27.982 7.76278 27.6667 7.76278H27.509ZM27.5879 7.10582C27.7061 7.10582 27.8112 7.07735 27.9032 7.02041C27.9996 6.96347 28.0762 6.88245 28.1331 6.77733C28.1901 6.66784 28.2185 6.54083 28.2185 6.3963V5.64079C28.2185 5.49188 28.1901 5.36486 28.1331 5.25975C28.0762 5.15464 27.9996 5.07361 27.9032 5.01667C27.8112 4.95974 27.7061 4.93127 27.5879 4.93127C27.4696 4.93127 27.3623 4.95974 27.2659 5.01667C27.174 5.07361 27.0995 5.15464 27.0426 5.25975C26.9856 5.36486 26.9572 5.49188 26.9572 5.64079V6.3963C26.9572 6.54083 26.9856 6.66784 27.0426 6.77733C27.0995 6.88245 27.174 6.96347 27.2659 7.02041C27.3623 7.07735 27.4696 7.10582 27.5879 7.10582ZM31.0602 7.76278C30.8543 7.76278 30.6726 7.7365 30.5149 7.68394C30.3572 7.63139 30.2324 7.5416 30.1404 7.41459C30.0528 7.2832 30.009 7.1102 30.009 6.89559V5.09551H29.6411V4.34H30.0419L30.4032 3.26915H31.0405V4.34H31.8222V5.09551H31.0405V6.65251C31.0405 6.84522 31.0799 6.97004 31.1587 7.02698C31.2375 7.07954 31.3229 7.10582 31.4149 7.10582C31.4631 7.10582 31.5288 7.09706 31.612 7.07954C31.6996 7.05764 31.7697 7.03574 31.8222 7.01384V7.63139C31.7609 7.65766 31.6821 7.68175 31.5857 7.70365C31.4938 7.72555 31.3996 7.74088 31.3032 7.74964C31.2113 7.7584 31.1302 7.76278 31.0602 7.76278ZM33.7367 7.76278C33.452 7.76278 33.1914 7.6927 32.9549 7.55255C32.7184 7.40802 32.5301 7.21312 32.3899 6.96785C32.2498 6.71821 32.1797 6.4379 32.1797 6.12694V5.90357C32.1797 5.66707 32.2213 5.45027 32.3045 5.25318C32.3878 5.05609 32.5016 4.88528 32.6462 4.74075C32.7951 4.59184 32.9637 4.47796 33.152 4.39913C33.3447 4.31591 33.5506 4.2743 33.7696 4.2743H33.9141C34.2251 4.2743 34.49 4.33343 34.709 4.45168C34.9324 4.56994 35.1032 4.73418 35.2215 4.94441C35.3397 5.15463 35.3988 5.3999 35.3988 5.68021H34.5054C34.5054 5.51377 34.4813 5.37581 34.4331 5.26632C34.3849 5.15245 34.317 5.06923 34.2294 5.01667C34.1419 4.95974 34.0324 4.93127 33.901 4.93127C33.7258 4.93127 33.5769 4.99258 33.4542 5.11522C33.336 5.23347 33.2768 5.40209 33.2768 5.62108V6.40287C33.2768 6.62185 33.3316 6.79485 33.4411 6.92187C33.555 7.0445 33.7126 7.10582 33.9141 7.10582C34.0586 7.10582 34.1769 7.08173 34.2689 7.03355C34.3652 6.98537 34.4375 6.90654 34.4857 6.79704C34.5338 6.68755 34.5579 6.54083 34.5579 6.35688H35.3988C35.3988 6.6547 35.3331 6.90873 35.2018 7.11895C35.0747 7.32918 34.8974 7.48904 34.6696 7.59854C34.4419 7.70803 34.1791 7.76278 33.8813 7.76278H33.7367ZM36.7816 7.76278C36.602 7.76278 36.4312 7.73212 36.2692 7.6708C36.1071 7.60949 35.9735 7.51094 35.8684 7.37517C35.7677 7.23502 35.7173 7.04669 35.7173 6.81018C35.7173 6.57368 35.7677 6.38097 35.8684 6.23205C35.9735 6.07876 36.1224 5.96051 36.3152 5.87729C36.5122 5.79408 36.7466 5.73714 37.0181 5.70648C37.294 5.67145 37.6006 5.65393 37.9378 5.65393V5.38457C37.9378 5.20938 37.8897 5.08675 37.7933 5.01667C37.697 4.94222 37.5612 4.90499 37.386 4.90499C37.2283 4.90499 37.0947 4.94003 36.9853 5.0101C36.8758 5.08018 36.821 5.1831 36.821 5.31888V5.36486H35.829C35.8246 5.35172 35.8224 5.33639 35.8224 5.31888C35.8224 5.29698 35.8224 5.27508 35.8224 5.25318C35.8224 5.06485 35.8837 4.89623 36.0064 4.74732C36.129 4.59841 36.302 4.48234 36.5254 4.39913C36.7531 4.31591 37.0181 4.2743 37.3203 4.2743H37.4845C37.9751 4.2743 38.3408 4.37066 38.5817 4.56337C38.8226 4.7517 38.943 5.00353 38.943 5.31888V6.86931C38.943 6.95252 38.9627 7.01384 39.0021 7.05326C39.0459 7.0883 39.0919 7.10582 39.1401 7.10582C39.1839 7.10582 39.2277 7.09925 39.2715 7.08611C39.3153 7.06859 39.3569 7.05107 39.3963 7.03355V7.61825C39.3394 7.66204 39.2627 7.69708 39.1664 7.72336C39.07 7.74964 38.9474 7.76278 38.7985 7.76278C38.632 7.76278 38.4897 7.73869 38.3714 7.69051C38.2576 7.63796 38.17 7.57007 38.1087 7.48685C38.0473 7.40364 38.0079 7.30728 37.9904 7.19779C37.8678 7.35546 37.7079 7.48904 37.5108 7.59854C37.3137 7.70803 37.0707 7.76278 36.7816 7.76278ZM37.294 7.10582C37.4035 7.10582 37.5064 7.08173 37.6028 7.03355C37.7035 6.98099 37.7846 6.90654 37.8459 6.81018C37.9072 6.70945 37.9378 6.58681 37.9378 6.44228V6.17293C37.6838 6.17293 37.4714 6.19045 37.3006 6.22549C37.1298 6.26052 37.0006 6.31527 36.913 6.38973C36.8298 6.46418 36.7882 6.56711 36.7882 6.6985C36.7882 6.85179 36.8342 6.95909 36.9261 7.02041C37.0225 7.07735 37.1451 7.10582 37.294 7.10582ZM39.7989 7.69708V4.34H40.5741L40.6924 4.82615C40.815 4.65534 40.9508 4.52176 41.0997 4.42541C41.253 4.32467 41.4435 4.2743 41.6712 4.2743C41.8902 4.2743 42.0829 4.31591 42.2494 4.39913C42.4158 4.47796 42.5472 4.61155 42.6436 4.79987C42.7487 4.6203 42.8822 4.48891 43.0443 4.4057C43.2107 4.3181 43.4034 4.2743 43.6224 4.2743C43.8414 4.2743 44.0319 4.3181 44.194 4.4057C44.3604 4.48891 44.4874 4.60936 44.575 4.76703C44.667 4.9247 44.713 5.11303 44.713 5.33202V7.69708H43.6947V5.56852C43.6947 5.38895 43.6531 5.25537 43.5699 5.16777C43.491 5.0758 43.3815 5.02981 43.2414 5.02981C43.1538 5.02981 43.0728 5.0539 42.9983 5.10208C42.9282 5.15026 42.8713 5.21595 42.8275 5.29917C42.7881 5.38238 42.7684 5.47874 42.7684 5.58823V7.69708H41.7501V5.56852C41.7501 5.38895 41.7085 5.25537 41.6253 5.16777C41.542 5.0758 41.4326 5.02981 41.2968 5.02981C41.2048 5.02981 41.1216 5.0539 41.0471 5.10208C40.9771 5.15026 40.9201 5.21595 40.8763 5.29917C40.8369 5.38238 40.8172 5.47874 40.8172 5.58823V7.69708H39.7989ZM45.3903 8.88619V4.34H46.1983L46.31 4.76046C46.4064 4.62468 46.5356 4.51081 46.6976 4.41884C46.8641 4.32248 47.0612 4.2743 47.2889 4.2743C47.5517 4.2743 47.786 4.33124 47.9918 4.44511C48.2021 4.55461 48.3685 4.73199 48.4911 4.97725C48.6138 5.22252 48.6751 5.54224 48.6751 5.93642V6.07438C48.6751 6.44666 48.6138 6.75982 48.4911 7.01384C48.3685 7.26349 48.2065 7.45182 48.005 7.57883C47.8035 7.70146 47.5845 7.76278 47.348 7.76278C47.1115 7.76278 46.9166 7.72117 46.7633 7.63796C46.6144 7.55036 46.5005 7.44306 46.4217 7.31604V8.88619H45.3903ZM47.0064 7.09925C47.1159 7.09925 47.2123 7.07078 47.2955 7.01384C47.3831 6.9569 47.4509 6.87588 47.4991 6.77076C47.5517 6.66127 47.578 6.53426 47.578 6.38973V5.68021C47.578 5.51815 47.5517 5.38238 47.4991 5.27289C47.4509 5.16339 47.3831 5.08237 47.2955 5.02981C47.2123 4.97288 47.1159 4.94441 47.0064 4.94441C46.9013 4.94441 46.8027 4.97288 46.7108 5.02981C46.6232 5.08237 46.5531 5.16339 46.5005 5.27289C46.448 5.378 46.4217 5.51377 46.4217 5.68021V6.38973C46.4217 6.53864 46.4458 6.66565 46.494 6.77076C46.5465 6.87588 46.6166 6.9569 46.7042 7.01384C46.7962 7.07078 46.8969 7.09925 47.0064 7.09925Z" fill="#0077FF"/>
</svg>
