<svg width="61" height="12" viewBox="0 0 61 12" fill="none" xmlns="http://www.w3.org/2000/svg">
<rect x="0.351562" y="0.0546875" width="60.0997" height="11.2848" rx="5.64241" fill="#D4F3D4"/>
<circle cx="12.259" cy="5.69711" r="2.05301" fill="#008000"/>
<path d="M19.7188 7.76278C19.456 7.76278 19.213 7.71679 18.9896 7.62482C18.7662 7.53284 18.5713 7.39926 18.4049 7.22407C18.2428 7.04888 18.1158 6.83427 18.0239 6.58025C17.9363 6.32622 17.8925 6.03935 17.8925 5.71962V5.16777C17.8925 4.84367 17.9406 4.5568 18.037 4.30715C18.1334 4.05313 18.2691 3.83852 18.4443 3.66333C18.6239 3.48814 18.8341 3.35456 19.075 3.26258C19.3203 3.17061 19.5852 3.12462 19.8699 3.12462H20.0145C20.2597 3.12462 20.4897 3.16185 20.7043 3.2363C20.9189 3.31076 21.1072 3.42025 21.2693 3.56478C21.4313 3.70494 21.5583 3.87794 21.6503 4.08379C21.7423 4.28963 21.7883 4.52614 21.7883 4.79331H20.77C20.77 4.59184 20.7327 4.42979 20.6583 4.30715C20.5882 4.18452 20.4875 4.09473 20.3561 4.0378C20.2291 3.98086 20.0802 3.95239 19.9093 3.95239C19.7823 3.95239 19.6663 3.9721 19.5612 4.01152C19.4604 4.04656 19.3706 4.10568 19.2918 4.1889C19.2173 4.26773 19.1582 4.37066 19.1144 4.49767C19.075 4.6203 19.0553 4.76703 19.0553 4.93784V5.94956C19.0553 6.12037 19.075 6.26709 19.1144 6.38973C19.1582 6.51236 19.2173 6.61528 19.2918 6.6985C19.3706 6.77733 19.4604 6.83646 19.5612 6.87588C19.6663 6.9153 19.7823 6.93501 19.9093 6.93501C20.0364 6.93501 20.1524 6.92187 20.2575 6.89559C20.367 6.86493 20.459 6.81894 20.5335 6.75763C20.6123 6.69193 20.6714 6.60871 20.7108 6.50798C20.7546 6.40287 20.7765 6.27366 20.7765 6.12037V5.9627H19.8042V5.23347H21.7883V6.79704C21.7883 7.00727 21.7926 7.18027 21.8014 7.31604C21.8102 7.44744 21.8211 7.57445 21.8342 7.69708H21.2364L21.0722 7.17808C20.9364 7.35765 20.7481 7.49999 20.5072 7.60511C20.2707 7.71022 20.0254 7.76278 19.7714 7.76278H19.7188ZM22.4279 7.69708V4.34H23.2031L23.3213 4.82615C23.3345 4.80863 23.3586 4.77141 23.3936 4.71447C23.433 4.65315 23.49 4.58965 23.5644 4.52395C23.6389 4.45387 23.7308 4.39475 23.8403 4.34657C23.9498 4.29839 24.079 4.2743 24.228 4.2743C24.4513 4.2743 24.6331 4.31591 24.7732 4.39913C24.9134 4.48234 25.0163 4.60279 25.082 4.76046C25.1521 4.91375 25.1871 5.0977 25.1871 5.31231C25.1871 5.36048 25.1849 5.41742 25.1805 5.48312C25.1762 5.54443 25.1718 5.60137 25.1674 5.65393H24.3134V5.5094C24.3134 5.43494 24.298 5.36048 24.2674 5.28603C24.2411 5.21157 24.1973 5.15245 24.136 5.10865C24.0747 5.06047 23.9914 5.03638 23.8863 5.03638C23.8075 5.03638 23.7396 5.05171 23.6827 5.08237C23.6257 5.11303 23.5797 5.15463 23.5447 5.20719C23.5097 5.25537 23.4834 5.31012 23.4659 5.37143C23.4527 5.42837 23.4462 5.4875 23.4462 5.54881V7.69708H22.4279ZM27.0856 7.76278C26.7702 7.76278 26.4878 7.6927 26.2381 7.55255C25.9885 7.4124 25.7914 7.2175 25.6468 6.96785C25.5067 6.71383 25.4366 6.41819 25.4366 6.08095V5.95613C25.4366 5.61451 25.5067 5.31888 25.6468 5.06923C25.7914 4.8152 25.9885 4.6203 26.2381 4.48453C26.4878 4.34438 26.7702 4.2743 27.0856 4.2743H27.2433C27.5586 4.2743 27.8411 4.34438 28.0907 4.48453C28.3404 4.6203 28.5353 4.8152 28.6754 5.06923C28.82 5.31888 28.8922 5.61451 28.8922 5.95613V6.08095C28.8922 6.41819 28.82 6.71383 28.6754 6.96785C28.5353 7.22188 28.3404 7.41897 28.0907 7.55912C27.8411 7.69489 27.5586 7.76278 27.2433 7.76278H27.0856ZM27.1644 7.10582C27.2827 7.10582 27.3878 7.07735 27.4798 7.02041C27.5761 6.96347 27.6528 6.88245 27.7097 6.77733C27.7666 6.66784 27.7951 6.54083 27.7951 6.3963V5.64079C27.7951 5.49188 27.7666 5.36486 27.7097 5.25975C27.6528 5.15464 27.5761 5.07361 27.4798 5.01667C27.3878 4.95974 27.2827 4.93127 27.1644 4.93127C27.0462 4.93127 26.9389 4.95974 26.8425 5.01667C26.7505 5.07361 26.6761 5.15464 26.6191 5.25975C26.5622 5.36486 26.5337 5.49188 26.5337 5.64079V6.3963C26.5337 6.54083 26.5622 6.66784 26.6191 6.77733C26.6761 6.88245 26.7505 6.96347 26.8425 7.02041C26.9389 7.07735 27.0462 7.10582 27.1644 7.10582ZM30.492 7.76278C30.1504 7.76278 29.8811 7.66861 29.684 7.48028C29.4913 7.28758 29.3949 7.01384 29.3949 6.65908V4.34H30.4263V6.44228C30.4263 6.63061 30.4658 6.77295 30.5446 6.86931C30.6278 6.96128 30.7504 7.00727 30.9125 7.00727C31.0176 7.00727 31.1118 6.98318 31.195 6.93501C31.2826 6.88245 31.3505 6.81237 31.3987 6.72478C31.4512 6.6328 31.4775 6.53426 31.4775 6.42914V4.34H32.5089V6.86931C32.5089 6.95252 32.5286 7.01384 32.568 7.05326C32.6118 7.0883 32.6578 7.10582 32.706 7.10582C32.7498 7.10582 32.7936 7.09925 32.8374 7.08611C32.8812 7.06859 32.9228 7.05107 32.9622 7.03355V7.61825C32.9053 7.66204 32.8286 7.69708 32.7323 7.72336C32.6359 7.74964 32.5155 7.76278 32.371 7.76278C32.2001 7.76278 32.06 7.74088 31.9505 7.69708C31.841 7.64891 31.7556 7.58321 31.6943 7.49999C31.633 7.41678 31.587 7.32261 31.5563 7.2175C31.4468 7.38831 31.2979 7.52189 31.1096 7.61825C30.9213 7.7146 30.7154 7.76278 30.492 7.76278ZM33.3958 8.88619V4.34H34.2039L34.3156 4.76046C34.4119 4.62468 34.5411 4.51081 34.7032 4.41884C34.8696 4.32248 35.0667 4.2743 35.2944 4.2743C35.5572 4.2743 35.7915 4.33124 35.9974 4.44511C36.2076 4.55461 36.3741 4.73199 36.4967 4.97725C36.6193 5.22252 36.6806 5.54224 36.6806 5.93642V6.07438C36.6806 6.44666 36.6193 6.75982 36.4967 7.01384C36.3741 7.26349 36.212 7.45182 36.0105 7.57883C35.8091 7.70146 35.5901 7.76278 35.3536 7.76278C35.1171 7.76278 34.9222 7.72117 34.7689 7.63796C34.62 7.55036 34.5061 7.44306 34.4273 7.31604V8.88619H33.3958ZM35.012 7.09925C35.1214 7.09925 35.2178 7.07078 35.301 7.01384C35.3886 6.9569 35.4565 6.87588 35.5047 6.77076C35.5572 6.66127 35.5835 6.53426 35.5835 6.38973V5.68021C35.5835 5.51815 35.5572 5.38238 35.5047 5.27289C35.4565 5.16339 35.3886 5.08237 35.301 5.02981C35.2178 4.97288 35.1214 4.94441 35.012 4.94441C34.9068 4.94441 34.8083 4.97288 34.7163 5.02981C34.6287 5.08237 34.5586 5.16339 34.5061 5.27289C34.4535 5.378 34.4273 5.51377 34.4273 5.68021V6.38973C34.4273 6.53864 34.4513 6.66565 34.4995 6.77076C34.5521 6.87588 34.6222 6.9569 34.7097 7.01384C34.8017 7.07078 34.9025 7.09925 35.012 7.09925ZM40.2848 7.76278C40.0133 7.76278 39.7571 7.72336 39.5162 7.64453C39.2797 7.56131 39.0717 7.43649 38.8921 7.27006C38.7169 7.09925 38.5789 6.88683 38.4782 6.6328C38.3775 6.3744 38.3271 6.07 38.3271 5.71962V5.16777C38.3271 4.82615 38.3775 4.52833 38.4782 4.2743C38.5833 4.02028 38.7257 3.80786 38.9052 3.63705C39.0848 3.46624 39.2906 3.33923 39.5228 3.25601C39.7593 3.16842 40.0089 3.12462 40.2717 3.12462H40.4162C40.6659 3.12462 40.9002 3.16185 41.1192 3.2363C41.3426 3.30638 41.5375 3.41806 41.7039 3.57135C41.8703 3.72027 41.9995 3.91297 42.0915 4.14948C42.1879 4.38161 42.236 4.65972 42.236 4.98382H41.2046C41.2046 4.71666 41.1696 4.50862 41.0995 4.35971C41.0338 4.2108 40.9352 4.10568 40.8039 4.04437C40.6725 3.98305 40.517 3.95239 40.3374 3.95239C40.2104 3.95239 40.0943 3.9721 39.9892 4.01152C39.8885 4.04656 39.8009 4.10349 39.7264 4.18233C39.652 4.26117 39.5928 4.36409 39.5491 4.4911C39.5096 4.61374 39.4899 4.76265 39.4899 4.93784V5.94956C39.4899 6.17731 39.525 6.36564 39.595 6.51455C39.6651 6.65908 39.7637 6.76638 39.8907 6.83646C40.0177 6.90216 40.1666 6.93501 40.3374 6.93501C40.5389 6.93501 40.7053 6.90435 40.8367 6.84303C40.9725 6.78171 41.0754 6.67879 41.1455 6.53426C41.2155 6.38535 41.2506 6.17731 41.2506 5.91014H42.236C42.236 6.21235 42.19 6.47951 42.0981 6.71164C42.0061 6.94376 41.8769 7.13866 41.7105 7.29633C41.544 7.44963 41.3513 7.56569 41.1323 7.64453C40.9133 7.72336 40.679 7.76278 40.4294 7.76278H40.2848ZM43.6402 7.76278C43.4606 7.76278 43.2898 7.73212 43.1278 7.6708C42.9657 7.60949 42.8321 7.51094 42.727 7.37517C42.6263 7.23502 42.5759 7.04669 42.5759 6.81018C42.5759 6.57368 42.6263 6.38097 42.727 6.23205C42.8321 6.07876 42.981 5.96051 43.1737 5.87729C43.3708 5.79408 43.6051 5.73714 43.8767 5.70648C44.1526 5.67145 44.4592 5.65393 44.7964 5.65393V5.38457C44.7964 5.20938 44.7483 5.08675 44.6519 5.01667C44.5556 4.94222 44.4198 4.90499 44.2446 4.90499C44.0869 4.90499 43.9533 4.94003 43.8438 5.0101C43.7344 5.08018 43.6796 5.1831 43.6796 5.31888V5.36486H42.6876C42.6832 5.35172 42.681 5.33639 42.681 5.31888C42.681 5.29698 42.681 5.27508 42.681 5.25318C42.681 5.06485 42.7423 4.89623 42.865 4.74732C42.9876 4.59841 43.1606 4.48234 43.384 4.39913C43.6117 4.31591 43.8767 4.2743 44.1789 4.2743H44.3431C44.8337 4.2743 45.1994 4.37066 45.4403 4.56337C45.6812 4.7517 45.8016 5.00353 45.8016 5.31888V6.86931C45.8016 6.95252 45.8213 7.01384 45.8607 7.05326C45.9045 7.0883 45.9505 7.10582 45.9987 7.10582C46.0425 7.10582 46.0863 7.09925 46.1301 7.08611C46.1739 7.06859 46.2155 7.05107 46.2549 7.03355V7.61825C46.198 7.66204 46.1213 7.69708 46.025 7.72336C45.9286 7.74964 45.806 7.76278 45.6571 7.76278C45.4906 7.76278 45.3483 7.73869 45.23 7.69051C45.1162 7.63796 45.0286 7.57007 44.9673 7.48685C44.9059 7.40364 44.8665 7.30728 44.849 7.19779C44.7264 7.35546 44.5665 7.48904 44.3694 7.59854C44.1723 7.70803 43.9293 7.76278 43.6402 7.76278ZM44.1526 7.10582C44.2621 7.10582 44.365 7.08173 44.4614 7.03355C44.5621 6.98099 44.6432 6.90654 44.7045 6.81018C44.7658 6.70945 44.7964 6.58681 44.7964 6.44228V6.17293C44.5424 6.17293 44.33 6.19045 44.1592 6.22549C43.9884 6.26052 43.8592 6.31527 43.7716 6.38973C43.6884 6.46418 43.6468 6.56711 43.6468 6.6985C43.6468 6.85179 43.6927 6.95909 43.7847 7.02041C43.8811 7.07735 44.0037 7.10582 44.1526 7.10582ZM46.6575 7.69708V2.96695H47.6889V7.69708H46.6575ZM48.3866 7.69708V2.96695H49.4181V7.69708H48.3866Z" fill="#008000"/>
</svg>
