<svg width="180" height="181" viewBox="0 0 180 181" fill="none" xmlns="http://www.w3.org/2000/svg">
<path d="M90 16.7C80.3084 16.7 70.7118 18.6089 61.758 22.3177C52.8041 26.0265 44.6685 31.4626 37.8155 38.3155C30.9626 45.1685 25.5265 53.3041 21.8177 62.258C18.1089 71.2118 16.2 80.8084 16.2 90.5C16.2 100.192 18.1089 109.788 21.8177 118.742C25.5265 127.696 30.9626 135.832 37.8155 142.684C44.6685 149.537 52.8041 154.974 61.758 158.682C70.7118 162.391 80.3085 164.3 90 164.3" stroke="#62B2FD" stroke-width="32.4"/>
<path d="M90 164.3C99.6916 164.3 109.288 162.391 118.242 158.682C127.196 154.974 135.332 149.537 142.184 142.684C149.037 135.832 154.474 127.696 158.182 118.742C161.891 109.788 163.8 100.192 163.8 90.5" stroke="#9BDFC4" stroke-width="32.4"/>
<path d="M163.8 90.5C163.8 78.8536 161.044 67.3725 155.756 56.9955C150.469 46.6185 142.801 37.6401 133.379 30.7945" stroke="#F99BAB" stroke-width="32.4"/>
<path d="M103.829 18.0072C114.5 20.0428 124.59 24.4092 133.379 30.7945" stroke="#FFB44F" stroke-width="32.4"/>
<path d="M90 16.7C94.6404 16.7 99.2705 17.1377 103.829 18.0072" stroke="#9F97F7" stroke-width="32.4"/>
<path d="M69.349 87.1237C69.349 86.0677 69.525 85.2357 69.877 84.6277C70.245 84.0037 70.757 83.4357 71.413 82.9237L76.093 79.2517C76.701 78.7877 77.117 78.3157 77.341 77.8357C77.581 77.3397 77.701 76.8277 77.701 76.2997C77.701 75.7077 77.509 75.1957 77.125 74.7637C76.741 74.3157 76.165 74.0917 75.397 74.0917C74.773 74.0917 74.253 74.2357 73.837 74.5237C73.437 74.7957 73.141 75.1237 72.949 75.5077C72.757 75.8917 72.661 76.2277 72.661 76.5157C72.661 76.8037 72.669 77.0197 72.685 77.1637H69.397C69.381 77.0357 69.373 76.8837 69.373 76.7077C69.373 75.8437 69.565 74.9957 69.949 74.1637C70.333 73.3157 70.989 72.6037 71.917 72.0277C72.845 71.4357 74.061 71.1397 75.565 71.1397H75.925C77.077 71.1397 78.061 71.3797 78.877 71.8597C79.709 72.3397 80.333 72.9717 80.749 73.7557C81.165 74.5237 81.373 75.3477 81.373 76.2277C81.373 77.1717 81.189 78.0117 80.821 78.7477C80.469 79.4677 79.853 80.1957 78.973 80.9317C77.965 81.7797 76.749 82.7397 75.325 83.8117C75.165 83.9397 74.965 84.1157 74.725 84.3397C74.485 84.5637 74.365 84.7077 74.365 84.7717H81.421V87.8438H69.349V87.1237ZM90.6923 77.5717C91.0763 76.9957 91.4363 76.2917 91.7723 75.4597C92.1243 74.6277 92.3963 73.8597 92.5883 73.1557H94.1243V81.1717H96.3323V84.0037H94.1243V87.8438H90.6923V84.0037H83.4443V81.1477C84.2603 79.8517 85.0923 78.2437 85.9403 76.3237C86.8043 74.3877 87.4523 72.6597 87.8843 71.1397H91.2683C91.0283 72.2277 90.5963 73.4437 89.9723 74.7877C89.3483 76.1157 88.6763 77.3637 87.9563 78.5317C87.2523 79.6997 86.6443 80.5797 86.1323 81.1717H90.6923V77.5717ZM110.788 82.3237C110.788 83.3957 110.532 84.3717 110.02 85.2517C109.508 86.1317 108.812 86.8277 107.932 87.3397C107.052 87.8357 106.084 88.0838 105.028 88.0838H104.332C103.276 88.0838 102.308 87.8357 101.428 87.3397C100.548 86.8277 99.8517 86.1317 99.3397 85.2517C98.8437 84.3717 98.5957 83.3957 98.5957 82.3237V76.9237C98.5957 75.8517 98.8437 74.8757 99.3397 73.9957C99.8517 73.1157 100.548 72.4197 101.428 71.9077C102.308 71.3957 103.276 71.1397 104.332 71.1397H105.028C106.084 71.1397 107.052 71.3957 107.932 71.9077C108.812 72.4197 109.508 73.1157 110.02 73.9957C110.532 74.8757 110.788 75.8517 110.788 76.9237V82.3237ZM107.236 76.5157C107.236 75.7957 106.988 75.1877 106.492 74.6917C106.012 74.1957 105.412 73.9477 104.692 73.9477C103.972 73.9477 103.364 74.1957 102.868 74.6917C102.388 75.1877 102.148 75.7957 102.148 76.5157V82.7077C102.148 83.4277 102.388 84.0357 102.868 84.5317C103.364 85.0277 103.972 85.2757 104.692 85.2757C105.412 85.2757 106.012 85.0277 106.492 84.5317C106.988 84.0357 107.236 83.4277 107.236 82.7077V76.5157Z" fill="#222529"/>
<path opacity="0.85" d="M76.9907 107.589C76.3987 107.589 75.8827 107.477 75.4427 107.253C75.0027 107.021 74.6627 106.701 74.4227 106.293C74.1907 105.877 74.0747 105.393 74.0747 104.841V99.2371H75.3467V104.805C75.3467 105.333 75.5067 105.761 75.8267 106.089C76.1467 106.417 76.5827 106.581 77.1347 106.581C77.7107 106.581 78.1547 106.417 78.4667 106.089C78.7787 105.753 78.9347 105.325 78.9347 104.805V99.2371H80.2187V104.841C80.2187 105.385 80.0907 105.865 79.8347 106.281C79.5787 106.697 79.2267 107.021 78.7787 107.253C78.3307 107.477 77.8107 107.589 77.2187 107.589H76.9907ZM84.2595 107.589C83.8355 107.589 83.4675 107.537 83.1555 107.433C82.8435 107.329 82.5835 107.193 82.3755 107.025C82.1675 106.849 82.0115 106.657 81.9075 106.449C81.8035 106.233 81.7515 106.021 81.7515 105.813C81.7515 105.765 81.7515 105.725 81.7515 105.693C81.7515 105.653 81.7555 105.605 81.7635 105.549H82.8195C82.8115 105.573 82.8075 105.597 82.8075 105.621C82.8075 105.637 82.8075 105.657 82.8075 105.681C82.8075 105.913 82.8795 106.109 83.0235 106.269C83.1755 106.421 83.3755 106.537 83.6235 106.617C83.8795 106.697 84.1675 106.737 84.4875 106.737C84.7595 106.737 85.0075 106.701 85.2315 106.629C85.4635 106.557 85.6435 106.453 85.7715 106.317C85.9075 106.173 85.9755 106.005 85.9755 105.813C85.9755 105.589 85.9035 105.417 85.7595 105.297C85.6155 105.169 85.4235 105.073 85.1835 105.009C84.9435 104.937 84.6795 104.877 84.3915 104.829C84.1115 104.773 83.8235 104.713 83.5275 104.649C83.2395 104.577 82.9755 104.481 82.7355 104.361C82.4955 104.241 82.3035 104.077 82.1595 103.869C82.0155 103.653 81.9435 103.369 81.9435 103.017C81.9435 102.745 82.0035 102.497 82.1235 102.273C82.2435 102.049 82.4155 101.861 82.6395 101.709C82.8635 101.549 83.1275 101.429 83.4315 101.349C83.7435 101.261 84.0835 101.217 84.4515 101.217H84.6075C84.9595 101.217 85.2795 101.265 85.5675 101.361C85.8555 101.449 86.1035 101.573 86.3115 101.733C86.5195 101.885 86.6755 102.061 86.7795 102.261C86.8915 102.453 86.9475 102.657 86.9475 102.873C86.9475 102.913 86.9435 102.957 86.9355 103.005C86.9355 103.045 86.9355 103.073 86.9355 103.089H85.8795V102.957C85.8795 102.877 85.8595 102.789 85.8195 102.693C85.7875 102.589 85.7155 102.493 85.6035 102.405C85.4995 102.309 85.3515 102.229 85.1595 102.165C84.9755 102.101 84.7355 102.069 84.4395 102.069C84.1595 102.069 83.9275 102.097 83.7435 102.153C83.5595 102.209 83.4155 102.281 83.3115 102.369C83.2155 102.457 83.1475 102.549 83.1075 102.645C83.0675 102.741 83.0475 102.829 83.0475 102.909C83.0475 103.101 83.1195 103.257 83.2635 103.377C83.4075 103.489 83.5995 103.577 83.8395 103.641C84.0795 103.705 84.3435 103.761 84.6315 103.809C84.9275 103.857 85.2195 103.917 85.5075 103.989C85.7955 104.053 86.0595 104.149 86.2995 104.277C86.5395 104.397 86.7315 104.565 86.8755 104.781C87.0195 104.997 87.0915 105.277 87.0915 105.621C87.0915 105.981 87.0235 106.289 86.8875 106.545C86.7515 106.793 86.5635 106.993 86.3235 107.145C86.0835 107.297 85.8075 107.409 85.4955 107.481C85.1835 107.553 84.8515 107.589 84.4995 107.589H84.2595ZM91.1114 107.589C90.5674 107.589 90.0874 107.473 89.6714 107.241C89.2634 107.001 88.9434 106.653 88.7114 106.197C88.4794 105.733 88.3634 105.177 88.3634 104.529V104.277C88.3634 103.621 88.4834 103.065 88.7234 102.609C88.9714 102.153 89.3074 101.809 89.7314 101.577C90.1554 101.337 90.6394 101.217 91.1834 101.217H91.3154C91.8114 101.217 92.2514 101.321 92.6354 101.529C93.0194 101.737 93.3154 102.033 93.5234 102.417C93.7394 102.801 93.8474 103.257 93.8474 103.785V104.553H89.6114C89.6114 105.009 89.6714 105.401 89.7914 105.729C89.9194 106.057 90.0994 106.309 90.3314 106.485C90.5714 106.653 90.8634 106.737 91.2074 106.737C91.4954 106.737 91.7514 106.681 91.9754 106.569C92.1994 106.457 92.3794 106.285 92.5154 106.053C92.6514 105.821 92.7194 105.533 92.7194 105.189H93.8474C93.8474 105.677 93.7314 106.101 93.4994 106.461C93.2674 106.821 92.9514 107.101 92.5514 107.301C92.1594 107.493 91.7154 107.589 91.2194 107.589H91.1114ZM89.6234 103.833H92.6714C92.6714 103.233 92.5394 102.789 92.2754 102.501C92.0194 102.213 91.6594 102.069 91.1954 102.069C90.7714 102.069 90.4074 102.217 90.1034 102.513C89.8074 102.809 89.6474 103.249 89.6234 103.833ZM95.4949 107.469V101.337H96.3829L96.5509 102.237C96.5589 102.221 96.5949 102.161 96.6589 102.057C96.7229 101.953 96.8189 101.837 96.9469 101.709C97.0829 101.573 97.2549 101.457 97.4629 101.361C97.6789 101.265 97.9429 101.217 98.2549 101.217C98.6789 101.217 99.0269 101.305 99.2989 101.481C99.5789 101.649 99.7829 101.881 99.9109 102.177C100.047 102.473 100.115 102.809 100.115 103.185C100.115 103.265 100.111 103.349 100.103 103.437C100.095 103.517 100.091 103.581 100.091 103.629H99.0589V103.401C99.0589 103.225 99.0229 103.041 98.9509 102.849C98.8869 102.649 98.7709 102.485 98.6029 102.357C98.4349 102.221 98.1989 102.153 97.8949 102.153C97.6709 102.153 97.4789 102.201 97.3189 102.297C97.1669 102.393 97.0429 102.513 96.9469 102.657C96.8589 102.801 96.7949 102.953 96.7549 103.113C96.7149 103.273 96.6949 103.421 96.6949 103.557V107.469H95.4949ZM103.513 107.589C103.089 107.589 102.721 107.537 102.409 107.433C102.097 107.329 101.837 107.193 101.629 107.025C101.421 106.849 101.265 106.657 101.161 106.449C101.057 106.233 101.005 106.021 101.005 105.813C101.005 105.765 101.005 105.725 101.005 105.693C101.005 105.653 101.009 105.605 101.017 105.549H102.073C102.065 105.573 102.061 105.597 102.061 105.621C102.061 105.637 102.061 105.657 102.061 105.681C102.061 105.913 102.133 106.109 102.277 106.269C102.429 106.421 102.629 106.537 102.877 106.617C103.133 106.697 103.421 106.737 103.741 106.737C104.013 106.737 104.261 106.701 104.485 106.629C104.717 106.557 104.897 106.453 105.025 106.317C105.161 106.173 105.229 106.005 105.229 105.813C105.229 105.589 105.157 105.417 105.013 105.297C104.869 105.169 104.677 105.073 104.437 105.009C104.197 104.937 103.933 104.877 103.645 104.829C103.365 104.773 103.077 104.713 102.781 104.649C102.493 104.577 102.229 104.481 101.989 104.361C101.749 104.241 101.557 104.077 101.413 103.869C101.269 103.653 101.197 103.369 101.197 103.017C101.197 102.745 101.257 102.497 101.377 102.273C101.497 102.049 101.669 101.861 101.893 101.709C102.117 101.549 102.381 101.429 102.685 101.349C102.997 101.261 103.337 101.217 103.705 101.217H103.861C104.213 101.217 104.533 101.265 104.821 101.361C105.109 101.449 105.357 101.573 105.565 101.733C105.773 101.885 105.929 102.061 106.033 102.261C106.145 102.453 106.201 102.657 106.201 102.873C106.201 102.913 106.197 102.957 106.189 103.005C106.189 103.045 106.189 103.073 106.189 103.089H105.133V102.957C105.133 102.877 105.113 102.789 105.073 102.693C105.041 102.589 104.969 102.493 104.857 102.405C104.753 102.309 104.605 102.229 104.413 102.165C104.229 102.101 103.989 102.069 103.693 102.069C103.413 102.069 103.181 102.097 102.997 102.153C102.813 102.209 102.669 102.281 102.565 102.369C102.469 102.457 102.401 102.549 102.361 102.645C102.321 102.741 102.301 102.829 102.301 102.909C102.301 103.101 102.373 103.257 102.517 103.377C102.661 103.489 102.853 103.577 103.093 103.641C103.333 103.705 103.597 103.761 103.885 103.809C104.181 103.857 104.473 103.917 104.761 103.989C105.049 104.053 105.313 104.149 105.553 104.277C105.793 104.397 105.985 104.565 106.129 104.781C106.273 104.997 106.345 105.277 106.345 105.621C106.345 105.981 106.277 106.289 106.141 106.545C106.005 106.793 105.817 106.993 105.577 107.145C105.337 107.297 105.061 107.409 104.749 107.481C104.437 107.553 104.105 107.589 103.753 107.589H103.513Z" fill="#595564"/>
</svg>
