<svg width="11" height="5" viewBox="0 0 11 5" fill="none" xmlns="http://www.w3.org/2000/svg">
<path d="M4.76203 4.72939L0.220541 0.975884C0.158337 0.924472 0.105747 0.864181 0.0627694 0.795009C0.0209228 0.726772 0 0.653393 0 0.574874C0 0.417835 0.0622038 0.282764 0.186613 0.169658C0.313283 0.056553 0.479538 0 0.685378 0H10.3163C10.521 0 10.6862 0.0579542 10.8117 0.173864C10.9372 0.289773 11 0.424378 11 0.577678C11 0.616937 10.9265 0.749673 10.7795 0.975884L6.23797 4.72939C6.13279 4.81632 6.01969 4.88316 5.89867 4.92989C5.77766 4.97663 5.64477 5 5.5 5C5.35523 5 5.22234 4.97663 5.10133 4.92989C4.98031 4.88316 4.86721 4.81632 4.76203 4.72939Z" fill="white"/>
</svg>
