<svg width="34" height="33" viewBox="0 0 34 33" fill="none" xmlns="http://www.w3.org/2000/svg">
<circle cx="16" cy="16" r="16" fill="#FFECCC"/>
<path d="M22.4408 14.9597L21.7874 17.7463C21.2274 20.153 20.1208 21.1263 18.0408 20.9263C17.7074 20.8997 17.3474 20.8397 16.9608 20.7463L15.8408 20.4797C13.0608 19.8197 12.2008 18.4463 12.8541 15.6597L13.5074 12.8663C13.6408 12.2997 13.8008 11.8063 14.0008 11.3997C14.7808 9.78633 16.1074 9.35299 18.3341 9.87966L19.4474 10.1397C22.2408 10.793 23.0941 12.173 22.4408 14.9597Z" stroke="#1F0954" stroke-linecap="round" stroke-linejoin="round"/>
<path d="M18.0407 20.9263C17.6274 21.2063 17.1074 21.4397 16.474 21.6463L15.4207 21.993C12.774 22.8463 11.3807 22.133 10.5207 19.4863L9.66738 16.853C8.81405 14.2063 9.52072 12.8063 12.1674 11.953L13.2207 11.6063C13.494 11.5197 13.754 11.4463 14.0007 11.3997C13.8007 11.8063 13.6407 12.2997 13.5074 12.8663L12.854 15.6597C12.2007 18.4463 13.0607 19.8197 15.8407 20.4797L16.9607 20.7463C17.3474 20.8397 17.7074 20.8997 18.0407 20.9263Z" stroke="#1F0954" stroke-linecap="round" stroke-linejoin="round"/>
<path d="M16.4274 13.6863L19.6607 14.5063" stroke="#1F0954" stroke-linecap="round" stroke-linejoin="round"/>
<path d="M15.774 16.2663L17.7074 16.7596" stroke="#1F0954" stroke-linecap="round" stroke-linejoin="round"/>
</svg>
