<svg width="180" height="181" viewBox="0 0 180 181" fill="none" xmlns="http://www.w3.org/2000/svg">
<path d="M90 16.7C80.3084 16.7 70.7118 18.6089 61.758 22.3177C52.8041 26.0265 44.6685 31.4626 37.8155 38.3155C30.9626 45.1685 25.5265 53.3041 21.8177 62.258C18.1089 71.2118 16.2 80.8084 16.2 90.5C16.2 100.192 18.1089 109.788 21.8177 118.742C25.5265 127.696 30.9626 135.832 37.8155 142.684C44.6685 149.537 52.8041 154.974 61.758 158.682C70.7118 162.391 80.3085 164.3 90 164.3" stroke="#62B2FD" stroke-width="32.4"/>
<path d="M90 164.3C99.6916 164.3 109.288 162.391 118.242 158.682C127.196 154.974 135.332 149.537 142.184 142.684C149.037 135.832 154.474 127.696 158.182 118.742C161.891 109.788 163.8 100.192 163.8 90.5" stroke="#9BDFC4" stroke-width="32.4"/>
<path d="M163.8 90.5C163.8 78.8536 161.044 67.3725 155.756 56.9955C150.469 46.6185 142.801 37.6401 133.379 30.7945" stroke="#F99BAB" stroke-width="32.4"/>
<path d="M103.829 18.0072C114.5 20.0428 124.59 24.4092 133.379 30.7945" stroke="#FFB44F" stroke-width="32.4"/>
<path d="M90 16.7C94.6404 16.7 99.2705 17.1377 103.829 18.0072" stroke="#9F97F7" stroke-width="32.4"/>
</svg>
